<?xml version="1.0" standalone="no"?>
<!DOCTYPE svg PUBLIC "-//W3C//DTD SVG 20010904//EN"
 "http://www.w3.org/TR/2001/REC-SVG-20010904/DTD/svg10.dtd">
<svg version="1.0" xmlns="http://www.w3.org/2000/svg"
 width="1024.000000pt" height="1536.000000pt" viewBox="0 0 1024.000000 1536.000000"
 preserveAspectRatio="xMidYMid meet">

<g transform="translate(0.000000,1536.000000) scale(0.100000,-0.100000)"
fill="#000000" stroke="none">
<path d="M4655 11048 c-219 -19 -319 -33 -445 -65 -74 -19 -170 -43 -212 -54
-248 -61 -657 -259 -962 -466 -199 -135 -309 -226 -477 -393 -176 -175 -209
-213 -336 -385 -232 -313 -380 -588 -517 -968 -91 -250 -150 -536 -175 -837
-12 -144 -7 -671 7 -765 6 -38 13 -97 16 -130 19 -215 137 -627 237 -827 22
-42 39 -79 39 -83 0 -14 75 -164 123 -245 228 -386 351 -544 626 -805 197
-186 281 -247 396 -286 22 -8 43 -18 47 -24 11 -15 431 -13 449 1 8 7 34 15
59 19 25 4 57 14 72 21 15 8 43 14 62 14 19 0 46 4 61 10 14 5 69 14 123 20
53 6 131 15 172 21 41 5 100 12 130 14 48 3 96 8 279 31 25 3 49 11 55 19 6 7
38 16 70 19 33 3 85 10 115 15 147 25 407 34 541 20 89 -10 150 -34 150 -60 0
-24 36 -47 85 -55 45 -7 57 -12 51 -22 -2 -4 3 -14 12 -22 9 -8 17 -13 17 -10
0 12 55 -46 65 -69 6 -14 24 -32 40 -40 18 -7 30 -20 30 -31 0 -10 5 -22 10
-25 6 -3 10 3 10 15 0 19 2 20 15 6 8 -8 15 -19 15 -24 0 -5 9 -20 19 -34 11
-13 23 -41 26 -62 4 -20 12 -43 19 -49 18 -20 35 -49 57 -95 17 -36 24 -42 42
-36 18 5 20 4 10 -7 -19 -19 -16 -29 8 -29 14 0 19 -5 16 -14 -3 -7 0 -19 6
-25 8 -8 7 -11 -4 -11 -9 0 -16 -7 -16 -15 0 -8 7 -15 16 -15 10 0 12 -3 5 -8
-6 -4 -14 -15 -17 -26 -6 -15 -3 -18 18 -14 14 3 28 1 31 -4 3 -4 10 -6 15 -2
6 3 5 12 -3 22 -11 13 -11 14 2 10 8 -3 14 -15 13 -27 -2 -14 1 -20 8 -15 8 4
9 0 4 -15 -4 -12 -2 -21 4 -21 6 0 11 5 11 10 0 6 11 10 25 10 14 0 25 5 25
10 0 7 6 7 19 1 11 -7 30 -7 50 -1 17 5 31 6 31 2 0 -3 5 -1 12 6 7 7 19 12
28 12 9 0 25 8 36 18 10 9 28 19 39 20 10 2 32 15 49 28 16 14 35 23 42 20 8
-3 14 -1 14 4 0 5 7 7 15 4 9 -4 15 0 15 10 0 10 6 13 15 10 8 -4 15 -2 15 3
0 5 20 14 44 21 25 6 54 21 64 33 12 12 22 16 26 10 4 -6 20 -3 44 11 20 12
46 26 58 32 11 6 19 16 17 22 -2 5 13 10 32 11 20 0 44 7 53 16 9 8 31 19 47
24 17 6 29 15 28 20 -1 6 15 13 35 16 62 10 69 12 86 26 13 11 16 11 16 0 0
-7 11 -2 28 13 32 30 112 81 112 72 0 -4 8 0 18 9 10 10 22 14 25 10 4 -3 7
-1 7 5 0 6 9 14 20 17 11 4 17 11 14 17 -4 6 -2 8 3 5 9 -6 52 20 73 43 3 3
37 31 76 62 97 78 383 372 475 488 65 81 144 196 318 465 48 73 172 332 226
470 124 316 205 623 240 905 24 192 30 615 11 778 -44 387 -149 776 -298 1107
-50 110 -129 257 -113 210 5 -16 0 -14 -24 9 -17 17 -31 38 -31 47 0 10 -7 24
-15 33 -8 8 -15 19 -15 23 0 12 -47 53 -60 53 -6 0 -10 5 -10 11 0 19 -51 78
-86 100 -19 11 -34 24 -34 29 0 4 -14 23 -32 41 -17 19 -28 28 -24 22 4 -7 2
-13 -3 -13 -6 0 -11 11 -11 24 0 29 -17 44 -47 41 -12 -1 -20 2 -18 6 3 4 -2
12 -10 19 -8 7 -15 19 -15 26 0 8 -9 14 -19 14 -26 0 -51 10 -51 21 0 12 37
11 43 -1 3 -6 4 -5 3 2 -1 7 -11 14 -22 16 -41 6 -94 40 -94 60 0 5 -11 17
-25 26 -24 16 -25 15 -25 -3 0 -14 5 -18 19 -14 14 4 20 -3 25 -28 8 -44 1
-48 -26 -14 -30 38 -46 76 -40 95 4 12 3 13 -10 2 -9 -7 -23 -10 -32 -6 -9 3
-16 1 -16 -5 0 -6 5 -11 10 -11 6 0 10 -7 10 -15 0 -8 5 -15 10 -15 6 0 10 -6
10 -14 0 -8 4 -18 10 -21 6 -4 7 1 3 11 -4 12 -3 15 5 10 7 -4 12 -14 12 -22
0 -8 4 -14 10 -14 12 0 45 -49 38 -56 -3 -3 -20 10 -38 28 -21 21 -35 28 -38
20 -7 -22 -19 -13 -15 12 3 13 0 27 -6 30 -6 4 -11 1 -11 -6 -1 -7 -7 4 -15
25 -15 44 -22 53 -32 44 -3 -4 -1 -18 5 -32 9 -19 9 -25 0 -25 -7 0 -2 -9 10
-20 21 -20 29 -40 16 -40 -13 0 -43 46 -39 61 3 8 -1 23 -8 33 -13 18 -15 18
-35 -5 -18 -18 -22 -20 -22 -6 0 11 -5 14 -17 10 -12 -5 -15 -2 -10 10 3 9 2
17 -3 17 -15 0 -12 -37 5 -53 8 -8 11 -17 8 -20 -3 -3 -6 -33 -7 -67 -1 -33
-6 -60 -11 -60 -6 0 -10 10 -11 23 -3 50 -4 58 -13 53 -7 -5 -19 -58 -23 -103
-2 -16 -24 -17 -33 -2 -4 5 3 19 15 29 24 21 21 56 -4 47 -10 -4 -13 0 -11 14
6 28 -9 23 -26 -8 -11 -20 -11 -27 -1 -30 6 -3 12 -18 12 -34 0 -21 -5 -29
-18 -29 -10 0 -23 -5 -30 -12 -9 -9 -12 -8 -12 5 0 10 11 22 25 27 30 11 32
26 5 40 -20 11 -28 40 -12 40 16 0 66 49 59 57 -5 4 -12 1 -16 -6 -12 -19 -25
5 -26 48 -1 19 -7 37 -14 39 -8 3 -12 -4 -10 -19 2 -13 0 -30 -4 -36 -5 -9 -2
-13 8 -13 9 0 13 -4 10 -10 -3 -5 -12 -10 -20 -10 -10 0 -12 12 -10 45 3 41 1
45 -20 45 -16 0 -30 11 -44 34 -24 39 -27 56 -8 56 18 0 47 32 47 51 0 8 -10
20 -21 28 -20 12 -21 11 -17 -11 4 -19 0 -24 -14 -23 -22 2 -62 70 -54 92 3 8
1 11 -4 8 -6 -3 -10 -13 -10 -22 0 -13 -3 -13 -15 -3 -21 18 -19 29 10 42 14
6 25 15 25 20 0 5 -10 4 -21 -3 -12 -6 -19 -7 -15 -1 10 17 -5 42 -25 42 -10
0 -19 5 -19 10 0 6 7 10 15 10 8 0 15 5 15 10 0 6 -4 10 -10 10 -5 0 -10 11
-10 24 0 13 -6 26 -12 29 -7 2 -10 7 -6 11 3 4 17 3 30 -4 22 -10 22 -10 4 4
-10 8 -23 17 -29 19 -6 2 -11 14 -12 27 -1 13 -8 26 -16 28 -11 3 -11 1 1 -7
12 -8 12 -11 1 -11 -7 0 -11 -6 -7 -15 8 -21 -10 -19 -20 3 -4 9 -8 20 -8 24
-1 4 -18 19 -39 34 -24 16 -36 31 -33 40 3 8 1 14 -4 14 -6 0 -10 7 -10 15 0
8 -7 15 -15 15 -8 0 -15 5 -15 11 0 5 -5 7 -12 3 -6 -4 -8 -3 -5 3 4 6 0 16
-8 23 -10 9 -15 9 -15 1 0 -6 -7 -11 -15 -11 -8 0 -15 -4 -15 -10 0 -5 -7 -10
-16 -10 -10 0 -14 6 -11 14 4 10 1 13 -9 9 -10 -4 -12 0 -8 11 4 10 13 15 23
12 9 -4 5 3 -9 15 -14 11 -31 28 -39 37 -12 15 -12 15 -6 -5 5 -18 3 -22 -9
-17 -9 3 -16 14 -17 23 0 14 -1 14 -11 1 -9 -14 -14 -12 -40 12 -22 21 -37 27
-56 23 -27 -5 -27 -5 -4 7 18 9 31 9 53 1 46 -18 34 1 -16 24 -25 11 -45 18
-45 14 0 -3 -9 -12 -20 -19 -16 -9 -20 -10 -18 0 2 7 -7 17 -20 23 -12 5 -20
16 -17 22 2 7 -2 13 -10 13 -8 0 -15 -6 -15 -12 0 -7 -16 4 -36 25 -25 26 -44
37 -64 37 -16 0 -32 5 -35 10 -4 6 -11 8 -16 4 -5 -3 -16 0 -24 6 -11 9 -15 9
-15 1 0 -6 7 -14 15 -17 21 -9 19 -23 -4 -21 -11 0 -17 6 -14 14 3 7 0 13 -6
13 -8 0 -9 5 -2 19 9 16 8 18 -8 14 -10 -3 -22 0 -25 6 -4 6 -12 11 -17 11 -6
0 -8 -4 -5 -9 3 -5 0 -11 -8 -14 -8 -3 -19 8 -30 29 -9 19 -20 33 -25 30 -5
-3 -21 4 -36 16 -16 13 -42 22 -61 22 -20 0 -29 3 -21 8 6 4 8 8 2 9 -39 4
-61 3 -67 -5 -3 -5 -18 1 -33 13 -15 11 -24 21 -19 22 5 0 -2 5 -16 10 -17 7
-26 7 -28 0 -2 -6 -11 -11 -20 -11 -13 0 -14 2 -4 9 11 7 10 10 -3 15 -9 3
-20 4 -25 1 -4 -3 -24 2 -44 10 -23 10 -36 11 -36 4 0 -6 -7 -3 -16 5 -17 18
-44 21 -44 6 0 -5 -7 -10 -15 -10 -9 0 -12 6 -9 15 4 8 2 16 -2 16 -13 2 -86
9 -114 12 -14 1 -31 7 -38 14 -8 7 -41 14 -75 15 -70 1 -75 2 -99 13 -10 4
-25 5 -33 2 -8 -4 -17 -3 -19 2 -3 4 -20 7 -38 5 -18 -1 -82 2 -143 8 -141 14
-286 16 -400 6z m890 -98 c3 -5 -1 -10 -10 -10 -9 0 -13 5 -10 10 3 6 8 10 10
10 2 0 7 -4 10 -10z m30 0 c3 -5 1 -10 -4 -10 -6 0 -11 5 -11 10 0 6 2 10 4
10 3 0 8 -4 11 -10z m170 -30 c3 -5 -1 -10 -9 -10 -8 0 -18 5 -21 10 -3 6 1
10 9 10 8 0 18 -4 21 -10z m-211 -45 c-4 -8 -8 -15 -10 -15 -2 0 -4 7 -4 15 0
8 4 15 10 15 5 0 7 -7 4 -15z m326 -5 c0 -5 -4 -10 -9 -10 -6 0 -13 5 -16 10
-3 6 1 10 9 10 9 0 16 -4 16 -10z m177 -36 c-3 -3 -12 -4 -19 -1 -8 3 -5 6 6
6 11 1 17 -2 13 -5z m-972 -44 c3 -5 1 -10 -4 -10 -6 0 -11 5 -11 10 0 6 2 10
4 10 3 0 8 -4 11 -10z m975 -6 c0 -2 -7 -4 -15 -4 -8 0 -15 4 -15 10 0 5 7 7
15 4 8 -4 15 -8 15 -10z m-1023 0 c-3 -3 -12 -4 -19 -1 -8 3 -5 6 6 6 11 1 17
-2 13 -5z m470 0 c-3 -3 -12 -4 -19 -1 -8 3 -5 6 6 6 11 1 17 -2 13 -5z m148
-4 c3 -5 2 -10 -4 -10 -5 0 -13 5 -16 10 -3 6 -2 10 4 10 5 0 13 -4 16 -10z
m85 0 c-20 -13 -33 -13 -25 0 3 6 14 10 23 10 15 0 15 -2 2 -10z m80 6 c0 -3
-4 -8 -10 -11 -5 -3 -10 -1 -10 4 0 6 5 11 10 11 6 0 10 -2 10 -4z m315 -6 c3
-6 -1 -7 -9 -4 -18 7 -21 14 -7 14 6 0 13 -4 16 -10z m264 -97 c13 -13 21 -26
17 -30 -3 -4 -20 7 -37 23 -29 28 -31 28 -44 11 -11 -15 -17 -17 -32 -8 -17
10 -17 10 0 11 20 0 23 16 5 23 -7 3 5 3 27 0 23 -4 50 -16 64 -30z m-1359 23
c0 -3 -4 -8 -10 -11 -5 -3 -10 -1 -10 4 0 6 5 11 10 11 6 0 10 -2 10 -4z m725
-6 c3 -5 1 -10 -4 -10 -6 0 -11 5 -11 10 0 6 2 10 4 10 3 0 8 -4 11 -10z m295
-47 c0 -2 -11 4 -25 13 -14 9 -25 20 -25 25 0 5 11 -1 25 -13 14 -12 25 -23
25 -25z m-380 27 c0 -5 -2 -10 -4 -10 -3 0 -8 5 -11 10 -3 6 -1 10 4 10 6 0
11 -4 11 -10z m200 -2 c0 -11 -12 -10 -30 2 -12 7 -10 9 8 7 12 0 22 -5 22 -9z
m-1000 -28 c0 -5 -5 -10 -11 -10 -5 0 -7 5 -4 10 3 6 8 10 11 10 2 0 4 -4 4
-10z m697 4 c-3 -3 -12 -4 -19 -1 -8 3 -5 6 6 6 11 1 17 -2 13 -5z m128 -4 c3
-5 1 -10 -4 -10 -6 0 -11 5 -11 10 0 6 2 10 4 10 3 0 8 -4 11 -10z m95 -10 c0
-5 -4 -10 -10 -10 -5 0 -10 5 -10 10 0 6 5 10 10 10 6 0 10 -4 10 -10z m70 0
c0 -5 -4 -10 -10 -10 -5 0 -10 5 -10 10 0 6 5 10 10 10 6 0 10 -4 10 -10z
m-633 -6 c-3 -3 -12 -4 -19 -1 -8 3 -5 6 6 6 11 1 17 -2 13 -5z m743 -4 c0 -5
-2 -10 -4 -10 -3 0 -8 5 -11 10 -3 6 -1 10 4 10 6 0 11 -4 11 -10z m488 -8 c2
-7 -2 -10 -12 -6 -9 3 -16 11 -16 16 0 13 23 5 28 -10z m-2308 -2 c0 -5 -8
-10 -17 -10 -15 0 -16 2 -3 10 19 12 20 12 20 0z m1437 4 c-3 -3 -12 -4 -19
-1 -8 3 -5 6 6 6 11 1 17 -2 13 -5z m578 -4 c8 -13 -5 -13 -25 0 -13 8 -13 10
2 10 9 0 20 -4 23 -10z m55 0 c0 -5 -4 -10 -10 -10 -5 0 -10 5 -10 10 0 6 5
10 10 10 6 0 10 -4 10 -10z m180 6 c0 -9 -30 -14 -35 -6 -4 6 3 10 14 10 12 0
21 -2 21 -4z m-93 -12 c-3 -3 -12 -4 -19 -1 -8 3 -5 6 6 6 11 1 17 -2 13 -5z
m153 -24 c0 -5 -2 -10 -4 -10 -3 0 -8 5 -11 10 -3 6 -1 10 4 10 6 0 11 -4 11
-10z m-160 -10 c0 -5 -4 -10 -10 -10 -5 0 -10 5 -10 10 0 6 5 10 10 10 6 0 10
-4 10 -10z m-393 -6 c-3 -3 -12 -4 -19 -1 -8 3 -5 6 6 6 11 1 17 -2 13 -5z
m440 0 c-3 -3 -12 -4 -19 -1 -8 3 -5 6 6 6 11 1 17 -2 13 -5z m138 -4 c3 -6
-4 -10 -17 -10 -18 0 -20 2 -8 10 19 12 18 12 25 0z m-1675 -4 c0 -3 -4 -8
-10 -11 -5 -3 -10 -1 -10 4 0 6 5 11 10 11 6 0 10 -2 10 -4z m703 -11 c-3 -9
-8 -14 -10 -11 -3 3 -2 9 2 15 9 16 15 13 8 -4z m895 1 c-7 -8 -17 -12 -22 -9
-4 3 -2 9 5 14 22 13 31 11 17 -5z m187 2 c24 -11 34 -28 16 -28 -11 0 -59 39
-49 40 4 0 19 -5 33 -12z m-58 -18 c14 -11 21 -20 15 -20 -12 0 -60 39 -49 40
5 0 20 -9 34 -20z m-720 4 c-3 -3 -12 -4 -19 -1 -8 3 -5 6 6 6 11 1 17 -2 13
-5z m553 -4 c0 -5 -4 -10 -9 -10 -6 0 -13 5 -16 10 -3 6 1 10 9 10 9 0 16 -4
16 -10z m-436 -25 c-4 -8 -8 -15 -10 -15 -2 0 -4 7 -4 15 0 8 4 15 10 15 5 0
7 -7 4 -15z m101 5 c3 -5 -1 -10 -9 -10 -9 0 -16 5 -16 10 0 6 4 10 9 10 6 0
13 -4 16 -10z m480 0 c3 -5 2 -10 -4 -10 -5 0 -13 5 -16 10 -3 6 -2 10 4 10 5
0 13 -4 16 -10z m-785 -4 c0 -3 -4 -8 -10 -11 -5 -3 -10 -1 -10 4 0 6 5 11 10
11 6 0 10 -2 10 -4z m937 -11 c9 -24 -1 -27 -15 -5 -8 13 -8 20 -2 20 6 0 13
-7 17 -15z m-817 -11 c0 -2 -7 -4 -15 -4 -8 0 -15 4 -15 10 0 5 7 7 15 4 8 -4
15 -8 15 -10z m540 6 c0 -5 -7 -7 -15 -4 -8 4 -15 8 -15 10 0 2 7 4 15 4 8 0
15 -4 15 -10z m-1390 -20 c0 -5 -5 -10 -11 -10 -5 0 -7 5 -4 10 3 6 8 10 11
10 2 0 4 -4 4 -10z m380 -10 c0 -5 -4 -10 -10 -10 -5 0 -10 5 -10 10 0 6 5 10
10 10 6 0 10 -4 10 -10z m-770 -10 c0 -5 -5 -10 -11 -10 -5 0 -7 5 -4 10 3 6
8 10 11 10 2 0 4 -4 4 -10z m510 -10 c0 -5 -2 -10 -4 -10 -3 0 -8 5 -11 10 -3
6 -1 10 4 10 6 0 11 -4 11 -10z m1480 0 c0 -5 -10 -10 -22 -10 -19 0 -20 2 -8
10 19 13 30 13 30 0z m190 0 c0 -5 -2 -10 -4 -10 -3 0 -8 5 -11 10 -3 6 -1 10
4 10 6 0 11 -4 11 -10z m-870 -10 c0 -5 -2 -10 -4 -10 -3 0 -8 5 -11 10 -3 6
-1 10 4 10 6 0 11 -4 11 -10z m810 -1 c0 -5 4 -8 9 -4 9 5 31 -24 31 -39 0 -3
-13 -6 -30 -6 -23 0 -28 3 -23 17 4 10 2 14 -4 10 -6 -4 -16 -1 -22 7 -9 11
-9 15 1 19 22 9 38 7 38 -4z m-1480 -3 c0 -3 -4 -8 -10 -11 -5 -3 -10 -1 -10
4 0 6 5 11 10 11 6 0 10 -2 10 -4z m1150 -6 c0 -5 -7 -7 -15 -4 -8 4 -15 8
-15 10 0 2 7 4 15 4 8 0 15 -4 15 -10z m-570 -10 c0 -5 -5 -10 -11 -10 -5 0
-7 5 -4 10 3 6 8 10 11 10 2 0 4 -4 4 -10z m595 -10 c3 -5 1 -10 -4 -10 -6 0
-11 5 -11 10 0 6 2 10 4 10 3 0 8 -4 11 -10z m210 0 c3 -5 2 -10 -4 -10 -5 0
-13 5 -16 10 -3 6 -2 10 4 10 5 0 13 -4 16 -10z m-238 -6 c-3 -3 -12 -4 -19
-1 -8 3 -5 6 6 6 11 1 17 -2 13 -5z m-194 -19 c4 -8 2 -17 -3 -20 -6 -4 -10 3
-10 14 0 25 6 27 13 6z m-1058 -5 c3 -5 2 -10 -4 -10 -5 0 -13 5 -16 10 -3 6
-2 10 4 10 5 0 13 -4 16 -10z m680 0 c3 -5 -1 -10 -10 -10 -9 0 -13 5 -10 10
3 6 8 10 10 10 2 0 7 -4 10 -10z m195 0 c0 -5 -5 -10 -11 -10 -5 0 -7 5 -4 10
3 6 8 10 11 10 2 0 4 -4 4 -10z m230 0 c0 -5 -2 -10 -4 -10 -3 0 -8 5 -11 10
-3 6 -1 10 4 10 6 0 11 -4 11 -10z m117 4 c-3 -3 -12 -4 -19 -1 -8 3 -5 6 6 6
11 1 17 -2 13 -5z m-1297 -8 c0 -11 -19 -15 -25 -6 -3 5 1 10 9 10 9 0 16 -2
16 -4z m-1815 -16 c3 -5 1 -10 -4 -10 -6 0 -11 5 -11 10 0 6 2 10 4 10 3 0 8
-4 11 -10z m1712 -6 c-3 -3 -12 -4 -19 -1 -8 3 -5 6 6 6 11 1 17 -2 13 -5z
m263 -24 c0 -5 -4 -10 -10 -10 -5 0 -10 5 -10 10 0 6 5 10 10 10 6 0 10 -4 10
-10z m975 -19 c3 -5 1 -12 -5 -16 -5 -3 -10 1 -10 9 0 18 6 21 15 7z m-3005
-5 c0 -3 -4 -8 -10 -11 -5 -3 -10 -1 -10 4 0 6 5 11 10 11 6 0 10 -2 10 -4z
m3725 -6 c3 -5 1 -10 -4 -10 -6 0 -11 5 -11 10 0 6 2 10 4 10 3 0 8 -4 11 -10z
m-1012 -7 c-7 -2 -19 -2 -25 0 -7 3 -2 5 12 5 14 0 19 -2 13 -5z m372 -3 c3
-5 1 -10 -4 -10 -6 0 -11 5 -11 10 0 6 2 10 4 10 3 0 8 -4 11 -10z m-3220 -10
c-3 -5 -11 -10 -16 -10 -6 0 -7 5 -4 10 3 6 11 10 16 10 6 0 7 -4 4 -10z
m3362 4 c-3 -3 -12 -4 -19 -1 -8 3 -5 6 6 6 11 1 17 -2 13 -5z m-907 -19 c0
-8 -7 -15 -15 -15 -16 0 -20 12 -8 23 11 12 23 8 23 -8z m100 5 c0 -5 -4 -10
-10 -10 -5 0 -10 5 -10 10 0 6 5 10 10 10 6 0 10 -4 10 -10z m1365 -20 c-3 -4
2 -11 11 -14 8 -3 12 -11 9 -16 -4 -6 -14 -1 -26 14 -23 29 -24 37 -4 30 8 -4
13 -10 10 -14z m-500 -1 c11 -17 -1 -21 -15 -4 -8 9 -8 15 -2 15 6 0 14 -5 17
-11z m455 1 c0 -5 -4 -10 -9 -10 -6 0 -13 5 -16 10 -3 6 1 10 9 10 9 0 16 -4
16 -10z m-1023 -26 c-3 -3 -12 -4 -19 -1 -8 3 -5 6 6 6 11 1 17 -2 13 -5z
m153 -4 c0 -5 -4 -10 -10 -10 -5 0 -10 5 -10 10 0 6 5 10 10 10 6 0 10 -4 10
-10z m-2490 -4 c0 -3 -4 -8 -10 -11 -5 -3 -10 -1 -10 4 0 6 5 11 10 11 6 0 10
-2 10 -4z m2397 -2 c-3 -3 -12 -4 -19 -1 -8 3 -5 6 6 6 11 1 17 -2 13 -5z
m-382 -14 c3 -5 2 -10 -4 -10 -5 0 -13 5 -16 10 -3 6 -2 10 4 10 5 0 13 -4 16
-10z m-1800 -10 c3 -5 1 -10 -4 -10 -6 0 -11 5 -11 10 0 6 2 10 4 10 3 0 8 -4
11 -10z m2776 1 c-8 -5 -20 -7 -28 -4 -21 8 -15 13 15 13 20 0 23 -3 13 -9z
m-2876 -30 c-3 -6 -11 -8 -17 -5 -6 4 -5 9 3 15 16 10 23 4 14 -10z m2485 -2
c0 -5 -4 -9 -10 -9 -5 0 -10 7 -10 16 0 8 5 12 10 9 6 -3 10 -10 10 -16z
m-105 -7 c-3 -3 -11 0 -18 7 -9 10 -8 11 6 5 10 -3 15 -9 12 -12z m375 14 c0
-2 -9 -6 -20 -9 -11 -3 -20 -1 -20 4 0 5 9 9 20 9 11 0 20 -2 20 -4z m539 -27
c-11 -6 -11 -11 -1 -21 18 -18 15 -33 -5 -17 -15 12 -16 12 -9 -6 5 -14 4 -17
-4 -9 -7 7 -8 19 -1 37 7 17 7 27 1 27 -6 0 -10 -4 -10 -9 0 -5 -9 -11 -20
-14 -12 -3 -20 -14 -20 -27 0 -19 -3 -20 -15 -10 -9 8 -30 10 -57 6 l-43 -7
40 20 c22 11 45 20 51 21 7 0 31 9 55 20 28 12 45 15 48 8 2 -5 -3 -14 -10
-19z m-3489 17 c0 -3 -4 -8 -10 -11 -5 -3 -10 -1 -10 4 0 6 5 11 10 11 6 0 10
-2 10 -4z m1363 -16 c8 0 8 -3 0 -11 -13 -13 -43 -5 -43 12 0 6 7 8 16 5 9 -3
21 -6 27 -6z m-978 -10 c3 -5 1 -10 -4 -10 -6 0 -11 5 -11 10 0 6 2 10 4 10 3
0 8 -4 11 -10z m295 6 c0 -2 -7 -6 -15 -10 -8 -3 -15 -1 -15 4 0 6 7 10 15 10
8 0 15 -2 15 -4z m-480 -10 c0 -3 -4 -8 -10 -11 -5 -3 -10 -1 -10 4 0 6 5 11
10 11 6 0 10 -2 10 -4z m2385 -6 c3 -5 1 -10 -4 -10 -6 0 -11 5 -11 10 0 6 2
10 4 10 3 0 8 -4 11 -10z m635 0 c0 -5 -7 -10 -16 -10 -8 0 -12 5 -9 10 3 6
10 10 16 10 5 0 9 -4 9 -10z m318 -15 c0 -14 -4 -25 -9 -25 -5 0 -9 11 -9 25
0 14 4 25 9 25 5 0 9 -11 9 -25z m-3888 5 c0 -5 -10 -10 -22 -10 -19 0 -20 2
-8 10 19 13 30 13 30 0z m445 -10 c-3 -5 -11 -10 -16 -10 -6 0 -7 5 -4 10 3 6
11 10 16 10 6 0 7 -4 4 -10z m1958 -25 c-5 -13 -23 -22 -23 -11 0 15 14 35 21
31 4 -3 6 -12 2 -20z m1122 15 c3 -5 -1 -10 -9 -10 -9 0 -16 5 -16 10 0 6 4
10 9 10 6 0 13 -4 16 -10z m-3185 -10 c0 -5 -4 -10 -10 -10 -5 0 -10 5 -10 10
0 6 5 10 10 10 6 0 10 -4 10 -10z m200 0 c0 -5 -5 -10 -11 -10 -5 0 -7 5 -4
10 3 6 8 10 11 10 2 0 4 -4 4 -10z m510 6 c0 -3 -4 -8 -10 -11 -5 -3 -10 -1
-10 4 0 6 5 11 10 11 6 0 10 -2 10 -4z m2755 -16 c3 -5 2 -10 -4 -10 -5 0 -13
5 -16 10 -3 6 -2 10 4 10 5 0 13 -4 16 -10z m90 -27 c24 -19 30 -30 22 -35 -8
-5 -3 -8 12 -8 17 0 22 -4 17 -16 -4 -11 1 -18 14 -21 26 -7 26 -23 -1 -23
-12 0 -23 8 -26 20 -3 11 -12 20 -19 20 -8 0 -14 7 -14 15 0 8 -5 15 -11 15
-5 0 -7 -5 -3 -12 4 -6 3 -8 -4 -5 -5 4 -8 16 -5 27 3 12 -1 22 -11 26 -9 3
-16 10 -16 15 0 14 9 11 45 -18z m-4018 11 c-3 -3 -12 -4 -19 -1 -8 3 -5 6 6
6 11 1 17 -2 13 -5z m973 -10 c0 -8 -5 -12 -10 -9 -6 4 -8 11 -5 16 9 14 15
11 15 -7z m2884 1 c-6 -16 -24 -21 -24 -7 0 11 11 22 21 22 5 0 6 -7 3 -15z
m-139 -5 c3 -5 1 -10 -4 -10 -6 0 -11 5 -11 10 0 6 2 10 4 10 3 0 8 -4 11 -10z
m-2929 -15 c-8 -8 -17 -15 -20 -15 -3 0 -3 7 0 15 4 8 13 15 21 15 12 0 12 -2
-1 -15z m2531 -11 c-3 -3 -12 -4 -19 -1 -8 3 -5 6 6 6 11 1 17 -2 13 -5z m353
-4 c0 -5 -2 -10 -4 -10 -3 0 -8 5 -11 10 -3 6 -1 10 4 10 6 0 11 -4 11 -10z
m170 -5 c0 -2 -7 -5 -15 -9 -9 -3 -15 0 -15 9 0 9 6 12 15 9 8 -4 15 -7 15 -9z
m-1400 -11 c0 -2 -7 -4 -15 -4 -8 0 -15 4 -15 10 0 5 7 7 15 4 8 -4 15 -8 15
-10z m360 -4 c0 -5 -4 -10 -10 -10 -5 0 -10 5 -10 10 0 6 5 10 10 10 6 0 10
-4 10 -10z m59 -11 c-16 -10 -23 -4 -14 10 3 6 11 8 17 5 6 -4 5 -9 -3 -15z
m-129 2 c0 -6 -9 -9 -19 -8 -11 0 -17 5 -15 9 7 11 34 10 34 -1z m1015 -1 c3
-5 1 -10 -4 -10 -6 0 -11 5 -11 10 0 6 2 10 4 10 3 0 8 -4 11 -10z m-2870 -10
c-3 -5 -11 -10 -16 -10 -6 0 -7 5 -4 10 3 6 11 10 16 10 6 0 7 -4 4 -10z
m2105 -6 c0 -2 -7 -4 -15 -4 -8 0 -15 4 -15 10 0 5 7 7 15 4 8 -4 15 -8 15
-10z m930 -6 c0 -13 -23 -5 -28 10 -2 7 2 10 12 6 9 -3 16 -11 16 -16z m-3523
6 c-3 -3 -12 -4 -19 -1 -8 3 -5 6 6 6 11 1 17 -2 13 -5z m1962 -3 c9 -6 10
-11 2 -15 -13 -8 -31 1 -31 15 0 11 11 11 29 0z m1316 -1 c3 -5 1 -10 -4 -10
-6 0 -11 5 -11 10 0 6 2 10 4 10 3 0 8 -4 11 -10z m270 0 c3 -5 1 -10 -4 -10
-6 0 -11 5 -11 10 0 6 2 10 4 10 3 0 8 -4 11 -10z m79 -6 c9 -22 -3 -32 -14
-14 -12 19 -12 30 -1 30 5 0 12 -7 15 -16z m-1294 2 c0 -3 -4 -8 -10 -11 -5
-3 -10 -1 -10 4 0 6 5 11 10 11 6 0 10 -2 10 -4z m365 -5 c3 -6 -4 -9 -15 -8
-11 1 -20 5 -20 9 0 11 28 10 35 -1z m552 -7 c-3 -3 -12 -4 -19 -1 -8 3 -5 6
6 6 11 1 17 -2 13 -5z m247 -3 c7 -11 -14 -20 -32 -13 -11 4 -11 6 0 13 17 11
26 11 32 0z m-3724 -11 c0 -5 -5 -10 -11 -10 -5 0 -7 5 -4 10 3 6 8 10 11 10
2 0 4 -4 4 -10z m585 0 c3 -5 -3 -10 -15 -10 -12 0 -18 5 -15 10 3 6 10 10 15
10 5 0 12 -4 15 -10z m-780 -20 c-3 -5 -12 -10 -18 -10 -7 0 -6 4 3 10 19 12
23 12 15 0z m2480 -4 c-11 -8 -24 -12 -29 -8 -5 3 -1 9 10 13 31 12 39 10 19
-5z m1455 4 c0 -5 -4 -10 -10 -10 -5 0 -10 5 -10 10 0 6 5 10 10 10 6 0 10 -4
10 -10z m183 -3 c3 3 3 -4 0 -16 -6 -24 -18 -27 -27 -6 -8 22 -36 7 -32 -19 2
-11 1 -15 -1 -8 -5 13 -39 17 -46 5 -2 -5 -2 -2 0 6 2 7 -2 21 -9 30 -10 13
-10 14 2 4 19 -17 49 -16 56 1 4 11 12 13 29 6 13 -5 25 -6 28 -3z m-333 -7
c0 -5 -4 -10 -10 -10 -5 0 -10 5 -10 10 0 6 5 10 10 10 6 0 10 -4 10 -10z
m-1395 -30 c-3 -5 -11 -10 -16 -10 -6 0 -7 5 -4 10 3 6 11 10 16 10 6 0 7 -4
4 -10z m195 6 c0 -3 -4 -8 -10 -11 -5 -3 -10 -1 -10 4 0 6 5 11 10 11 6 0 10
-2 10 -4z m1035 -6 c3 -5 1 -10 -4 -10 -6 0 -11 5 -11 10 0 6 2 10 4 10 3 0 8
-4 11 -10z m295 -11 c0 -5 -7 -9 -15 -9 -9 0 -12 6 -9 15 6 15 24 11 24 -6z
m80 17 c0 -3 -4 -8 -10 -11 -5 -3 -10 -1 -10 4 0 6 5 11 10 11 6 0 10 -2 10
-4z m-3170 -30 c0 -2 -7 -7 -16 -10 -8 -3 -12 -2 -9 4 6 10 25 14 25 6z m3040
0 c0 -3 -4 -8 -10 -11 -5 -3 -10 -1 -10 4 0 6 5 11 10 11 6 0 10 -2 10 -4z
m296 -19 c1 -9 -2 -17 -7 -17 -5 0 -9 5 -9 10 0 6 -9 10 -19 10 -11 0 -23 -4
-26 -10 -3 -5 -13 -10 -22 -10 -26 0 4 28 35 33 38 5 45 3 48 -16z m-3626 9
c0 -3 -4 -8 -10 -11 -5 -3 -10 -1 -10 4 0 6 5 11 10 11 6 0 10 -2 10 -4z
m1745 -6 c3 -5 1 -10 -4 -10 -6 0 -11 5 -11 10 0 6 2 10 4 10 3 0 8 -4 11 -10z
m1751 -20 c8 0 14 -4 14 -10 0 -5 -6 -10 -14 -10 -14 0 -27 22 -25 43 1 7 3 4
6 -5 2 -10 11 -18 19 -18z m-4179 14 c-3 -3 -12 -4 -19 -1 -8 3 -5 6 6 6 11 1
17 -2 13 -5z m2075 -26 c-6 -6 -19 -7 -29 -3 -17 7 -17 8 2 15 24 9 41 2 27
-12z m958 12 c0 -5 -2 -10 -4 -10 -3 0 -8 5 -11 10 -3 6 -1 10 4 10 6 0 11 -4
11 -10z m1690 -11 c0 -6 -4 -7 -10 -4 -5 3 -10 11 -10 16 0 6 5 7 10 4 6 -3
10 -11 10 -16z m-4130 7 c0 -3 -4 -8 -10 -11 -5 -3 -10 -1 -10 4 0 6 5 11 10
11 6 0 10 -2 10 -4z m257 -2 c-3 -3 -12 -4 -19 -1 -8 3 -5 6 6 6 11 1 17 -2
13 -5z m2690 0 c-3 -3 -12 -4 -19 -1 -8 3 -5 6 6 6 11 1 17 -2 13 -5z m268 -3
c3 -5 1 -12 -5 -16 -5 -3 -10 1 -10 9 0 18 6 21 15 7z m805 0 c0 -6 -4 -13
-10 -16 -5 -3 -10 1 -10 9 0 9 5 16 10 16 6 0 10 -4 10 -9z m-2262 -13 c-6
-18 -28 -21 -28 -4 0 9 7 16 16 16 9 0 14 -5 12 -12z m1989 -10 c-3 -8 -6 -5
-6 6 -1 11 2 17 5 13 3 -3 4 -12 1 -19z m-107 2 c0 -5 -2 -10 -4 -10 -3 0 -8
5 -11 10 -3 6 -1 10 4 10 6 0 11 -4 11 -10z m-3557 -7 c-7 -2 -19 -2 -25 0 -7
3 -2 5 12 5 14 0 19 -2 13 -5z m540 -13 c-3 -11 -13 -20 -22 -20 -14 0 -14 2
-1 10 8 5 11 10 7 10 -11 0 2 20 13 20 4 0 6 -9 3 -20z m1987 10 c0 -5 -4 -10
-10 -10 -5 0 -10 5 -10 10 0 6 5 10 10 10 6 0 10 -4 10 -10z m906 -6 c-9 -8
-20 -12 -26 -9 -15 9 -2 25 21 25 19 0 19 -1 5 -16z m-3166 -14 c-20 -13 -33
-13 -25 0 3 6 14 10 23 10 15 0 15 -2 2 -10z m352 -12 c-7 -7 -12 -8 -12 -2 0
14 12 26 19 19 2 -3 -1 -11 -7 -17z m943 12 c-3 -5 -12 -7 -20 -3 -21 7 -19
13 6 13 11 0 18 -4 14 -10z m289 1 c4 -5 -3 -7 -14 -4 -23 6 -26 13 -6 13 8 0
17 -4 20 -9z m856 -1 c0 -5 -5 -10 -11 -10 -5 0 -7 5 -4 10 3 6 8 10 11 10 2
0 4 -4 4 -10z m660 -11 c0 -6 -4 -7 -10 -4 -5 3 -10 11 -10 16 0 6 5 7 10 4 6
-3 10 -11 10 -16z m283 14 c3 -5 1 -17 -4 -28 -6 -16 -8 -17 -8 -3 -1 9 -9 22
-18 27 -16 9 -16 10 4 11 12 0 24 -3 26 -7z m-2613 -7 c0 -3 -4 -8 -10 -11 -5
-3 -10 -1 -10 4 0 6 5 11 10 11 6 0 10 -2 10 -4z m1785 -6 c3 -5 1 -10 -4 -10
-6 0 -11 5 -11 10 0 6 2 10 4 10 3 0 8 -4 11 -10z m410 0 c3 -6 -4 -10 -17
-10 -18 0 -20 2 -8 10 19 12 18 12 25 0z m-3225 -10 c0 -5 -2 -10 -4 -10 -3 0
-8 5 -11 10 -3 6 -1 10 4 10 6 0 11 -4 11 -10z m90 0 c0 -5 -2 -10 -4 -10 -3
0 -8 5 -11 10 -3 6 -1 10 4 10 6 0 11 -4 11 -10z m3045 0 c3 -5 1 -10 -4 -10
-6 0 -11 5 -11 10 0 6 2 10 4 10 3 0 8 -4 11 -10z m545 1 c0 -6 -4 -13 -10
-16 -5 -3 -10 1 -10 9 0 9 5 16 10 16 6 0 10 -4 10 -9z m-4060 -11 c0 -5 -2
-10 -4 -10 -3 0 -8 5 -11 10 -3 6 -1 10 4 10 6 0 11 -4 11 -10z m2350 0 c0 -5
-5 -10 -11 -10 -5 0 -7 5 -4 10 3 6 8 10 11 10 2 0 4 -4 4 -10z m1620 -11 c0
-6 -4 -7 -10 -4 -5 3 -10 11 -10 16 0 6 5 7 10 4 6 -3 10 -11 10 -16z m-660 7
c0 -3 -4 -8 -10 -11 -5 -3 -10 -1 -10 4 0 6 5 11 10 11 6 0 10 -2 10 -4z m120
-6 c0 -5 -4 -10 -10 -10 -5 0 -10 5 -10 10 0 6 5 10 10 10 6 0 10 -4 10 -10z
m475 0 c3 -5 2 -10 -4 -10 -5 0 -13 5 -16 10 -3 6 -2 10 4 10 5 0 13 -4 16
-10z m-3182 -20 c3 -12 0 -20 -8 -20 -8 0 -11 8 -8 20 3 11 7 20 8 20 1 0 5
-9 8 -20z m1851 -1 c-3 -5 -10 -7 -15 -3 -5 3 -7 10 -3 15 3 5 10 7 15 3 5 -3
7 -10 3 -15z m1821 11 c3 -5 2 -10 -4 -10 -5 0 -13 5 -16 10 -3 6 -2 10 4 10
5 0 13 -4 16 -10z m169 -69 c-6 -6 -63 61 -63 74 0 6 15 -8 34 -30 18 -22 32
-42 29 -44z m-804 53 c0 -8 -5 -12 -10 -9 -6 4 -8 11 -5 16 9 14 15 11 15 -7z
m104 0 c4 -9 4 -19 1 -22 -3 -3 -5 0 -5 6 0 7 -7 12 -15 12 -8 0 -15 5 -15 10
0 16 27 11 34 -6z m194 -9 c0 -14 -4 -25 -9 -25 -10 0 -11 12 -3 34 9 22 12
20 12 -9z m-3148 2 c0 -8 -7 -14 -15 -14 -25 0 -17 17 13 26 1 1 2 -5 2 -12z
m2155 3 c-3 -5 -15 -10 -26 -10 -11 0 -17 5 -14 10 3 6 15 10 26 10 11 0 17
-4 14 -10z m75 0 c0 -5 -4 -10 -10 -10 -5 0 -10 5 -10 10 0 6 5 10 10 10 6 0
10 -4 10 -10z m1290 -11 c0 -11 -4 -17 -10 -14 -5 3 -10 13 -10 21 0 8 5 14
10 14 6 0 10 -9 10 -21z m-4380 1 c0 -5 -5 -10 -11 -10 -5 0 -7 5 -4 10 3 6 8
10 11 10 2 0 4 -4 4 -10z m960 2 c0 -5 -7 -9 -15 -9 -8 0 -12 4 -9 9 3 4 9 8
15 8 5 0 9 -4 9 -8z m1465 -2 c3 -6 -1 -7 -9 -4 -18 7 -21 14 -7 14 6 0 13 -4
16 -10z m-2615 -4 c0 -3 -4 -8 -10 -11 -5 -3 -10 -1 -10 4 0 6 5 11 10 11 6 0
10 -2 10 -4z m504 -11 c-4 -8 -12 -15 -20 -15 -8 0 -11 6 -8 15 4 8 12 15 20
15 8 0 11 -6 8 -15z m941 -4 c-3 -6 -11 -11 -17 -11 -6 0 -6 6 2 15 14 17 26
13 15 -4z m2395 9 c0 -5 -4 -10 -10 -10 -5 0 -10 5 -10 10 0 6 5 10 10 10 6 0
10 -4 10 -10z m780 6 c0 -3 -4 -8 -10 -11 -5 -3 -10 -1 -10 4 0 6 5 11 10 11
6 0 10 -2 10 -4z m-2970 -14 c0 -5 -7 -9 -15 -9 -8 0 -12 4 -9 9 3 4 9 8 15 8
5 0 9 -4 9 -8z m310 -2 c0 -5 -4 -10 -10 -10 -5 0 -10 5 -10 10 0 6 5 10 10
10 6 0 10 -4 10 -10z m130 6 c0 -9 -30 -14 -35 -6 -4 6 3 10 14 10 12 0 21 -2
21 -4z m-1985 -16 c3 -6 -1 -13 -10 -16 -19 -8 -30 0 -20 15 8 14 22 14 30 1z
m2140 0 c3 -6 -1 -7 -9 -4 -18 7 -21 14 -7 14 6 0 13 -4 16 -10z m574 -2 c17
-10 17 -13 4 -26 -12 -12 -17 -12 -26 -2 -9 10 -9 11 0 6 6 -3 14 -2 18 4 3 5
-1 10 -9 10 -9 0 -16 5 -16 10 0 13 6 13 29 -2z m866 2 c3 -5 1 -10 -4 -10 -6
0 -11 5 -11 10 0 6 2 10 4 10 3 0 8 -4 11 -10z m1008 -22 c10 -1 17 -7 15 -13
-3 -11 -12 -11 -43 0 -19 6 -19 6 -2 -8 23 -19 22 -24 -8 -29 -18 -4 -29 1
-40 18 -21 33 -19 51 3 31 21 -19 44 -5 35 22 -5 14 -4 14 8 -1 8 -9 22 -18
32 -20z m-2933 12 c0 -5 -5 -10 -11 -10 -5 0 -7 5 -4 10 3 6 8 10 11 10 2 0 4
-4 4 -10z m1831 -6 c12 -14 11 -16 -5 -13 -11 2 -21 10 -24 17 -5 17 13 15 29
-4z m506 10 c-3 -3 -12 -4 -19 -1 -8 3 -5 6 6 6 11 1 17 -2 13 -5z m-2847 -13
c0 -5 -7 -12 -16 -15 -14 -5 -15 -4 -4 9 14 17 20 19 20 6z m980 -7 c0 -2 -7
-4 -15 -4 -8 0 -15 4 -15 10 0 5 7 7 15 4 8 -4 15 -8 15 -10z m274 8 c2 -4 -5
-9 -17 -9 -17 -2 -19 0 -7 7 18 12 18 12 24 2z m986 -2 c0 -5 -2 -10 -4 -10
-3 0 -8 5 -11 10 -3 6 -1 10 4 10 6 0 11 -4 11 -10z m-85 -10 c3 -5 2 -10 -4
-10 -5 0 -13 5 -16 10 -3 6 -2 10 4 10 5 0 13 -4 16 -10z m-2525 -9 c0 -5 -7
-14 -15 -21 -16 -14 -18 -10 -9 14 6 17 24 22 24 7z m2055 -9 c-3 -3 -11 0
-18 7 -9 10 -8 11 6 5 10 -3 15 -9 12 -12z m285 8 c0 -5 -7 -7 -15 -4 -8 4
-15 8 -15 10 0 2 7 4 15 4 8 0 15 -4 15 -10z m730 -10 c-6 -11 -13 -20 -15
-20 -3 0 -5 9 -5 20 0 11 7 20 15 20 13 0 14 -4 5 -20z m60 16 c0 -2 -7 -7
-16 -10 -8 -3 -12 -2 -9 4 6 10 25 14 25 6z m-4060 -10 c0 -3 -4 -8 -10 -11
-5 -3 -10 -1 -10 4 0 6 5 11 10 11 6 0 10 -2 10 -4z m210 -6 c0 -5 -7 -10 -16
-10 -8 0 -12 5 -9 10 3 6 10 10 16 10 5 0 9 -4 9 -10z m4033 -21 c-17 -17 -37
-1 -22 17 8 10 15 12 23 4 7 -7 7 -13 -1 -21z m-4193 11 c0 -5 -5 -10 -11 -10
-5 0 -7 5 -4 10 3 6 8 10 11 10 2 0 4 -4 4 -10z m2120 -5 c-7 -9 -15 -13 -17
-11 -7 7 7 26 19 26 6 0 6 -6 -2 -15z m1750 5 c0 -5 -4 -10 -10 -10 -5 0 -10
5 -10 10 0 6 5 10 10 10 6 0 10 -4 10 -10z m200 0 c0 -5 -7 -7 -15 -4 -8 4
-15 8 -15 10 0 2 7 4 15 4 8 0 15 -4 15 -10z m726 -28 c-9 -8 -26 10 -26 26 1
15 2 15 15 -2 8 -11 13 -21 11 -24z m-4022 13 c-4 -8 -11 -12 -16 -9 -6 4 -5
10 3 15 19 12 19 11 13 -6z m3024 -10 c-3 -3 -9 2 -12 12 -6 14 -5 15 5 6 7
-7 10 -15 7 -18z m-3763 -4 c-3 -6 -11 -8 -17 -5 -6 4 -5 9 3 15 16 10 23 4
14 -10z m1897 7 c-9 -9 -15 -9 -24 0 -9 9 -7 12 12 12 19 0 21 -3 12 -12z
m1118 6 c0 -3 -6 -12 -14 -19 -12 -12 -15 -12 -19 0 -3 7 -1 16 6 19 17 7 27
7 27 0z m720 2 c0 -3 -4 -8 -10 -11 -5 -3 -10 -1 -10 4 0 6 5 11 10 11 6 0 10
-2 10 -4z m370 -11 c0 -17 -14 -25 -53 -29 -14 -1 -32 -8 -41 -15 -10 -9 -16
-9 -21 -1 -8 13 0 24 18 26 7 0 20 2 30 2 11 1 15 7 11 14 -5 8 -2 9 9 5 9 -3
19 -2 22 3 9 15 25 12 25 -5z m-4323 -1 c-3 -3 -12 -4 -19 -1 -8 3 -5 6 6 6
11 1 17 -2 13 -5z m2563 -4 c0 -5 -7 -10 -15 -10 -8 0 -15 5 -15 10 0 6 7 10
15 10 8 0 15 -4 15 -10z m1130 0 c0 -5 -7 -7 -15 -4 -8 4 -15 8 -15 10 0 2 7
4 15 4 8 0 15 -4 15 -10z m101 -5 c-1 -15 -24 -12 -29 3 -3 9 2 13 12 10 10
-1 17 -7 17 -13z m99 11 c0 -3 -4 -8 -10 -11 -5 -3 -10 -1 -10 4 0 6 5 11 10
11 6 0 10 -2 10 -4z m-3855 -16 c-3 -5 -12 -10 -18 -10 -7 0 -6 4 3 10 19 12
23 12 15 0z m258 -11 c-7 -7 -19 -8 -30 -4 -16 7 -15 9 7 15 30 8 38 4 23 -11z
m117 11 c0 -5 -5 -10 -11 -10 -5 0 -7 5 -4 10 3 6 8 10 11 10 2 0 4 -4 4 -10z
m2010 -10 c0 -5 -4 -10 -9 -10 -6 0 -13 5 -16 10 -3 6 1 10 9 10 9 0 16 -4 16
-10z m-2330 -4 c0 -3 -4 -8 -10 -11 -5 -3 -10 -1 -10 4 0 6 5 11 10 11 6 0 10
-2 10 -4z m980 -6 c0 -5 -4 -10 -10 -10 -5 0 -10 5 -10 10 0 6 5 10 10 10 6 0
10 -4 10 -10z m100 1 c0 -5 -7 -11 -14 -14 -10 -4 -13 -1 -9 9 6 15 23 19 23
5z m1027 3 c-3 -3 -12 -4 -19 -1 -8 3 -5 6 6 6 11 1 17 -2 13 -5z m1123 -14
c0 -11 -2 -20 -4 -20 -2 0 -6 9 -9 20 -3 11 -1 20 4 20 5 0 9 -9 9 -20z m100
16 c0 -11 -19 -15 -25 -6 -3 5 1 10 9 10 9 0 16 -2 16 -4z m170 0 c0 -3 -4 -8
-10 -11 -5 -3 -10 -1 -10 4 0 6 5 11 10 11 6 0 10 -2 10 -4z m1345 -6 c3 -5 1
-10 -4 -10 -6 0 -11 5 -11 10 0 6 2 10 4 10 3 0 8 -4 11 -10z m-3163 -12 c-9
-9 -15 -9 -24 0 -9 9 -7 12 12 12 19 0 21 -3 12 -12z m2722 -3 c7 -19 -3 -19
-28 0 -19 15 -19 15 1 15 11 0 23 -7 27 -15z m-4366 -9 c-7 -8 -16 -12 -21 -9
-11 7 2 23 19 23 12 0 12 -2 2 -14z m1767 5 c3 -5 1 -12 -5 -16 -5 -3 -10 1
-10 9 0 18 6 21 15 7z m290 -1 c3 -5 1 -10 -4 -10 -6 0 -11 5 -11 10 0 6 2 10
4 10 3 0 8 -4 11 -10z m120 0 c-3 -5 -11 -10 -16 -10 -6 0 -7 5 -4 10 3 6 11
10 16 10 6 0 7 -4 4 -10z m375 -11 c0 -7 -18 -7 -48 0 -2 1 -1 5 2 10 7 11 46
2 46 -10z m1480 6 c0 -8 -2 -15 -4 -15 -2 0 -6 7 -10 15 -3 8 -1 15 4 15 6 0
10 -7 10 -15z m816 -12 c-7 -7 -26 7 -26 19 0 6 6 6 15 -2 9 -7 13 -15 11 -17z
m-2199 11 c-3 -3 -12 -4 -19 -1 -8 3 -5 6 6 6 11 1 17 -2 13 -5z m1303 -4 c0
-12 -28 -25 -36 -17 -9 9 6 27 22 27 8 0 14 -5 14 -10z m377 -4 c-5 -15 -49
-14 -54 1 -3 7 7 11 27 11 17 -1 29 -6 27 -12z m496 -26 c3 -11 1 -20 -4 -20
-5 0 -9 7 -9 15 0 8 -5 15 -11 15 -5 0 -7 5 -4 10 9 14 21 5 28 -20z m-3683
10 c0 -5 -2 -10 -4 -10 -3 0 -8 5 -11 10 -3 6 -1 10 4 10 6 0 11 -4 11 -10z
m120 5 c0 -2 -9 -9 -20 -15 -16 -9 -18 -8 -14 5 5 13 34 22 34 10z m2130 1 c0
-3 -4 -8 -10 -11 -5 -3 -10 -1 -10 4 0 6 5 11 10 11 6 0 10 -2 10 -4z m378
-21 c-3 -3 -9 2 -12 12 -6 14 -5 15 5 6 7 -7 10 -15 7 -18z m102 14 c0 -16
-17 -18 -35 -5 -17 13 -17 14 8 14 15 0 27 -4 27 -9z m1081 -6 c13 -16 12 -17
-3 -4 -10 7 -18 15 -18 17 0 8 8 3 21 -13z m-5101 -3 c0 -5 -4 -10 -10 -10 -5
0 -10 5 -10 10 0 6 5 10 10 10 6 0 10 -4 10 -10z m3168 -2 c-2 -6 -10 -14 -18
-16 -7 -3 -10 0 -6 6 3 6 0 13 -6 15 -7 3 -2 6 10 6 14 1 22 -4 20 -11z m661
-5 c0 -11 -3 -13 -6 -5 -2 6 -9 10 -14 6 -5 -3 -9 0 -9 5 0 6 7 11 15 11 8 0
15 -8 14 -17z m1311 -4 c0 -5 -4 -9 -10 -9 -5 0 -10 7 -10 16 0 8 5 12 10 9 6
-3 10 -10 10 -16z m-2616 -10 c-3 -5 -10 -7 -15 -3 -5 3 -7 10 -3 15 3 5 10 7
15 3 5 -3 7 -10 3 -15z m1844 9 c-3 -7 -11 -13 -18 -13 -7 0 -15 6 -17 13 -3
7 4 12 17 12 13 0 20 -5 18 -12z m152 2 c0 -5 -4 -10 -9 -10 -6 0 -13 5 -16
10 -3 6 1 10 9 10 9 0 16 -4 16 -10z m-3825 -10 c3 -5 -1 -10 -10 -10 -9 0
-13 5 -10 10 3 6 8 10 10 10 2 0 7 -4 10 -10z m3622 -6 c7 -21 -33 -22 -46 -2
-11 18 -10 19 15 16 15 -2 29 -8 31 -14z m-1912 -4 c3 -6 -1 -7 -9 -4 -18 7
-21 14 -7 14 6 0 13 -4 16 -10z m260 0 c-3 -5 -13 -10 -21 -10 -8 0 -14 5 -14
10 0 6 9 10 21 10 11 0 17 -4 14 -10z m1585 6 c0 -2 -11 -11 -25 -20 -21 -14
-25 -14 -25 -2 0 8 8 17 18 19 25 7 32 7 32 3z m825 -6 c3 -5 1 -10 -4 -10 -6
0 -11 5 -11 10 0 6 2 10 4 10 3 0 8 -4 11 -10z m-2815 -9 c0 -6 -4 -13 -10
-16 -5 -3 -10 1 -10 9 0 9 5 16 10 16 6 0 10 -4 10 -9z m790 1 c0 -4 -9 -8
-19 -8 -11 0 -17 4 -15 8 3 4 12 8 20 8 8 0 14 -4 14 -8z m315 -2 c3 -5 2 -10
-4 -10 -5 0 -13 5 -16 10 -3 6 -2 10 4 10 5 0 13 -4 16 -10z m-1515 -10 c0 -5
-7 -7 -15 -4 -8 4 -15 8 -15 10 0 2 7 4 15 4 8 0 15 -4 15 -10z m930 0 c9 -6
10 -10 3 -10 -6 0 -19 -3 -27 -6 -12 -5 -15 -2 -10 10 7 18 13 20 34 6z m670
0 c0 -5 -4 -10 -9 -10 -6 0 -13 5 -16 10 -3 6 1 10 9 10 9 0 16 -4 16 -10z
m690 1 c0 -5 -7 -14 -15 -21 -12 -10 -15 -10 -15 2 0 8 3 18 7 21 9 10 23 9
23 -2z m380 -1 c0 -5 -2 -10 -4 -10 -3 0 -8 5 -11 10 -3 6 -1 10 4 10 6 0 11
-4 11 -10z m526 -3 c10 4 14 -3 14 -24 0 -16 5 -34 12 -41 7 -7 8 -12 3 -12
-6 0 -21 17 -35 38 -30 44 -37 62 -20 45 7 -6 19 -9 26 -6z m-566 -7 c0 -5 -4
-10 -10 -10 -5 0 -10 -7 -10 -15 0 -8 -4 -15 -10 -15 -11 0 -14 33 -3 43 10
11 33 8 33 -3z m-3160 -15 c0 -8 -2 -15 -4 -15 -2 0 -6 7 -10 15 -3 8 -1 15 4
15 6 0 10 -7 10 -15z m2217 9 c-3 -3 -12 -4 -19 -1 -8 3 -5 6 6 6 11 1 17 -2
13 -5z m493 -14 c0 -17 -2 -19 -14 -8 -14 13 -12 28 5 28 5 0 9 -9 9 -20z
m-2040 0 c0 -5 -4 -10 -10 -10 -5 0 -10 5 -10 10 0 6 5 10 10 10 6 0 10 -4 10
-10z m644 -19 c15 -16 15 -19 2 -24 -10 -4 -13 -1 -9 9 3 7 0 14 -6 14 -6 0
-11 5 -11 10 0 14 5 13 24 -9z m275 5 c9 -10 8 -15 -4 -20 -22 -8 -45 3 -38
20 7 18 27 18 42 0z m247 2 c5 -7 3 -8 -6 -3 -7 4 -16 2 -21 -6 -7 -11 -9 -10
-9 4 0 19 25 23 36 5z m568 0 c-5 -8 -2 -9 9 -5 17 6 24 -7 9 -17 -13 -8 -35
11 -28 23 4 6 9 11 12 11 3 0 2 -5 -2 -12z m116 2 c0 -5 -7 -10 -15 -10 -8 0
-15 5 -15 10 0 6 7 10 15 10 8 0 15 -4 15 -10z m96 -17 c-4 -4 -12 -1 -19 7
-9 10 -9 11 1 6 7 -4 12 -2 13 6 0 11 2 11 6 0 3 -7 2 -16 -1 -19z m454 7 c0
-11 -4 -20 -10 -20 -5 0 -10 9 -10 20 0 11 5 20 10 20 6 0 10 -9 10 -20z
m-4173 -5 c0 -8 -4 -12 -9 -9 -5 3 -6 10 -3 15 9 13 12 11 12 -6z m-147 -5 c0
-5 -4 -10 -10 -10 -5 0 -10 5 -10 10 0 6 5 10 10 10 6 0 10 -4 10 -10z m1470
2 c0 -5 -7 -9 -15 -9 -8 0 -15 4 -15 9 0 4 7 8 15 8 8 0 15 -4 15 -8z m1730
-2 c0 -5 -7 -7 -15 -4 -8 4 -15 2 -15 -4 0 -6 6 -13 13 -15 7 -3 5 -6 -5 -6
-18 -1 -24 19 -11 32 10 10 33 8 33 -3z m1048 -25 c-9 -9 -30 14 -23 25 6 9
10 8 17 -4 6 -10 8 -19 6 -21z m-1981 1 c-12 -13 -37 -17 -37 -6 0 13 23 28
36 23 10 -4 10 -8 1 -17z m138 14 c-3 -5 -10 -10 -16 -10 -5 0 -9 5 -9 10 0 6
7 10 16 10 8 0 12 -4 9 -10z m-411 -16 c24 -9 19 -24 -9 -24 -18 0 -23 4 -19
15 7 17 7 17 28 9z m966 -9 c0 -8 -9 -15 -20 -15 -20 0 -26 11 -13 23 12 13
33 7 33 -8z m1200 -5 c0 -11 -4 -20 -9 -20 -11 0 -22 26 -14 34 12 12 23 5 23
-14z m-4083 4 c-3 -3 -12 -4 -19 -1 -8 3 -5 6 6 6 11 1 17 -2 13 -5z m1103 2
c0 -3 -4 -8 -10 -11 -5 -3 -10 -1 -10 4 0 6 5 11 10 11 6 0 10 -2 10 -4z
m1510 -13 c0 -14 -2 -15 -9 -4 -7 11 -9 11 -13 0 -3 -8 -9 -11 -13 -7 -10 9 3
28 21 28 8 0 14 -8 14 -17z m1373 -8 c-21 -16 -26 -14 -17 8 3 9 12 13 20 10
12 -4 11 -8 -3 -18z m393 13 c-15 -49 -16 -50 -31 -38 -22 18 -18 38 8 43 12
2 23 5 24 6 1 0 1 -5 -1 -11z m608 -7 c3 -4 0 -13 -5 -21 -8 -13 -12 -12 -24
4 -8 11 -15 23 -15 27 0 8 38 0 44 -10z m-3194 5 c0 -2 -7 -9 -15 -16 -12 -10
-15 -10 -15 4 0 9 7 16 15 16 8 0 15 -2 15 -4z m1515 -5 c7 -12 -12 -24 -25
-16 -11 7 -4 25 10 25 5 0 11 -4 15 -9z m105 -15 c0 -9 -7 -12 -20 -9 -11 3
-20 9 -20 14 0 5 9 9 20 9 11 0 20 -6 20 -14z m-2950 -6 c0 -5 -2 -10 -4 -10
-3 0 -8 5 -11 10 -3 6 -1 10 4 10 6 0 11 -4 11 -10z m2519 1 c9 -6 5 -8 -13
-8 -14 0 -26 3 -26 8 0 11 21 11 39 0z m531 -6 c0 -13 -4 -14 -20 -5 -11 6
-20 13 -20 15 0 3 9 5 20 5 11 0 20 -7 20 -15z m90 5 c0 -5 -10 -10 -22 -10
-19 0 -20 2 -8 10 19 13 30 13 30 0z m300 -5 c0 -8 -9 -15 -20 -15 -13 0 -18
5 -14 15 4 8 12 15 20 15 8 0 14 -7 14 -15z m-196 -11 c3 -8 2 -13 -3 -9 -5 3
-12 -1 -14 -7 -3 -7 -6 -3 -6 10 -1 25 14 30 23 6z m100 1 c-4 -8 -10 -15 -15
-15 -5 0 -9 7 -9 15 0 8 7 15 15 15 9 0 12 -6 9 -15z m486 -2 c8 -7 -23 -21
-37 -16 -7 3 -13 12 -13 20 0 10 6 12 23 7 12 -3 24 -8 27 -11z m260 4 c0 -7
-9 -13 -20 -14 -16 -1 -17 1 -7 12 15 18 27 19 27 2z m-2104 -12 c-8 -8 -18
-15 -22 -15 -3 0 -1 7 6 15 7 8 17 15 22 15 5 0 3 -7 -6 -15z m271 0 c0 -8 -4
-15 -9 -15 -4 0 -8 7 -8 15 0 8 4 15 8 15 5 0 9 -7 9 -15z m-417 -10 c0 -8 -7
-15 -15 -15 -8 0 -15 7 -15 15 0 8 7 15 15 15 8 0 15 -7 15 -15z m796 4 c10
-17 -13 -36 -27 -22 -12 12 -4 33 11 33 5 0 12 -5 16 -11z m1919 1 c3 -5 2
-10 -4 -10 -5 0 -13 5 -16 10 -3 6 -2 10 4 10 5 0 13 -4 16 -10z m-3010 -10
c3 -5 1 -10 -4 -10 -6 0 -11 5 -11 10 0 6 2 10 4 10 3 0 8 -4 11 -10z m2209
-5 c-4 -8 -10 -15 -14 -15 -4 0 -10 7 -14 15 -4 10 1 15 14 15 13 0 18 -5 14
-15z m-2624 1 c0 -2 -7 -6 -15 -10 -8 -3 -15 -1 -15 4 0 6 7 10 15 10 8 0 15
-2 15 -4z m557 -2 c-3 -3 -12 -4 -19 -1 -8 3 -5 6 6 6 11 1 17 -2 13 -5z
m-412 -14 c3 -5 -3 -10 -14 -10 -12 0 -21 5 -21 10 0 6 6 10 14 10 8 0 18 -4
21 -10z m1115 -1 c0 -5 -5 -7 -12 -3 -8 5 -9 2 -5 -9 4 -11 1 -17 -7 -17 -12
0 -14 14 -7 38 3 8 31 0 31 -9z m345 0 c11 -17 -1 -21 -15 -4 -8 9 -8 15 -2
15 6 0 14 -5 17 -11z m906 1 c5 0 9 -5 9 -11 0 -6 -7 -9 -15 -5 -8 3 -15 1
-15 -4 0 -6 -4 -10 -8 -10 -4 0 -8 9 -8 20 0 13 5 19 14 15 7 -3 18 -5 23 -5z
m-1954 -6 c-3 -3 -12 -4 -19 -1 -8 3 -5 6 6 6 11 1 17 -2 13 -5z m1869 -12 c1
-7 0 -8 -3 -2 -2 5 -9 10 -14 10 -6 0 -7 -4 -4 -10 3 -5 1 -10 -4 -10 -6 0
-11 7 -11 16 0 18 32 15 36 -4z m394 -13 c0 -21 -8 -23 -29 -10 -12 8 -12 11
0 24 17 18 29 13 29 -14z m60 15 c0 -17 -22 -14 -28 4 -2 7 3 12 12 12 9 0 16
-7 16 -16z m-4480 -4 c0 -5 -4 -10 -10 -10 -5 0 -10 5 -10 10 0 6 5 10 10 10
6 0 10 -4 10 -10z m2016 -2 c4 -7 3 -8 -4 -4 -7 4 -12 2 -12 -5 0 -7 -3 -10
-6 -6 -6 5 3 27 11 27 2 0 7 -5 11 -12z m574 3 c0 -5 -9 -11 -20 -14 -20 -5
-26 3 -13 16 9 10 33 8 33 -2z m720 -1 c0 -5 -9 -10 -21 -10 -11 0 -17 5 -14
10 3 6 13 10 21 10 8 0 14 -4 14 -10z m620 -10 c0 -5 -5 -12 -10 -15 -6 -4 -9
-1 -8 7 2 7 -3 12 -10 10 -8 -1 -11 2 -7 7 6 11 35 3 35 -9z m-3010 0 c0 -5
-2 -10 -4 -10 -3 0 -8 5 -11 10 -3 6 -1 10 4 10 6 0 11 -4 11 -10z m2508 -2
c-6 -17 -38 -19 -38 -2 0 8 9 14 21 14 11 0 19 -5 17 -12z m89 -10 c-3 -8 -6
-5 -6 6 -1 11 2 17 5 13 3 -3 4 -12 1 -19z m-556 -2 c5 3 9 0 9 -5 0 -6 -9
-11 -20 -11 -20 0 -26 11 -13 24 4 4 9 2 11 -3 2 -6 8 -9 13 -5z m536 -8 c-3
-8 -6 -5 -6 6 -1 11 2 17 5 13 3 -3 4 -12 1 -19z m100 0 c-3 -8 -6 -5 -6 6 -1
11 2 17 5 13 3 -3 4 -12 1 -19z m131 5 c2 -7 -1 -13 -8 -13 -6 0 -8 5 -4 12 5
8 2 9 -9 5 -10 -3 -17 -2 -17 4 0 14 32 7 38 -8z m102 2 c0 -8 -4 -15 -10 -15
-5 0 -7 7 -4 15 4 8 8 15 10 15 2 0 4 -7 4 -15z m814 0 c3 -9 0 -15 -9 -15 -8
0 -15 7 -15 15 0 8 4 15 9 15 5 0 11 -7 15 -15z m-3269 -5 c3 -5 -1 -10 -10
-10 -9 0 -13 5 -10 10 3 6 8 10 10 10 2 0 7 -4 10 -10z m1035 -11 c0 -5 -7 -9
-15 -9 -15 0 -20 12 -9 23 8 8 24 -1 24 -14z m294 15 c9 -3 13 -11 10 -16 -4
-6 -10 -5 -15 3 -8 12 -10 12 -18 0 -5 -8 -11 -9 -15 -3 -3 6 0 13 6 15 7 3
14 6 15 6 1 1 8 -2 17 -5z m1641 -15 c0 -8 -10 -15 -22 -15 -26 -1 -29 6 -11
24 15 15 33 10 33 -9z m-2816 -11 c0 -16 -2 -18 -6 -8 -3 8 -11 18 -17 22 -7
5 -4 8 7 8 11 0 17 -7 16 -22z m736 -6 c-3 -3 -11 0 -18 7 -9 10 -8 11 6 5 10
-3 15 -9 12 -12z m815 14 c0 -15 -14 -35 -21 -30 -15 9 -10 34 6 34 8 0 15 -2
15 -4z m1514 -5 c7 -10 -18 -34 -27 -25 -7 8 3 34 13 34 5 0 11 -4 14 -9z
m-4994 -11 c0 -5 -5 -10 -11 -10 -5 0 -7 5 -4 10 3 6 8 10 11 10 2 0 4 -4 4
-10z m2193 -5 c-3 -9 -8 -14 -10 -11 -3 3 -2 9 2 15 9 16 15 13 8 -4z m162 5
c-3 -5 -12 -10 -18 -10 -7 0 -6 4 3 10 19 12 23 12 15 0z m2315 -5 c0 -8 -7
-15 -15 -15 -8 0 -15 7 -15 15 0 8 7 15 15 15 8 0 15 -7 15 -15z m510 -11 c0
-8 -4 -14 -9 -14 -12 0 -32 26 -25 33 10 9 34 -4 34 -19z m-1953 -23 c-5 -2
-13 3 -18 10 -7 12 -9 12 -9 0 0 -8 -3 -12 -6 -8 -4 3 -4 14 0 23 6 16 8 15
25 -2 10 -10 14 -21 8 -23z m369 28 c3 -6 2 -15 -4 -21 -6 -6 -11 -2 -15 11
-5 22 7 29 19 10z m997 -2 c3 -8 -3 -13 -14 -13 -11 0 -19 6 -19 13 0 7 6 13
14 13 8 0 16 -6 19 -13z m342 -15 c0 -18 -20 -15 -23 4 -3 10 1 15 10 12 7 -3
13 -10 13 -16z m-1365 -2 c0 -5 -5 -10 -11 -10 -5 0 -7 5 -4 10 3 6 8 10 11
10 2 0 4 -4 4 -10z m117 -5 c0 -18 -19 -15 -25 3 -2 7 3 12 11 12 7 0 14 -7
14 -15z m826 0 c0 -6 -7 -11 -16 -13 -12 -3 -15 1 -11 13 7 17 25 17 27 0z
m377 9 c0 -16 -23 -44 -35 -44 -18 0 -18 5 -5 31 10 17 40 27 40 13z m-1564
-20 c-5 -12 -2 -15 9 -10 9 3 13 2 10 -4 -7 -12 -45 -13 -45 -2 0 8 21 32 28
32 2 0 1 -7 -2 -16z m492 -2 c2 -8 -7 -11 -25 -11 -26 2 -26 2 -4 6 19 4 21 7
10 15 -12 8 -12 9 0 6 8 -3 17 -10 19 -16z m489 -14 c-3 -7 -5 -2 -5 12 0 14
2 19 5 13 2 -7 2 -19 0 -25z m123 18 c0 -8 -5 -18 -12 -22 -7 -4 -8 -3 -4 4 4
7 2 12 -3 12 -6 0 -11 5 -11 10 0 6 7 10 15 10 8 0 15 -6 15 -14z m-2700 0 c0
-3 -4 -8 -10 -11 -5 -3 -10 -1 -10 4 0 6 5 11 10 11 6 0 10 -2 10 -4z m2195
-6 c3 -6 -1 -7 -9 -4 -11 4 -16 0 -16 -12 0 -9 -3 -15 -6 -11 -9 8 3 37 15 37
5 0 13 -4 16 -10z m875 -20 c0 -18 -23 -34 -34 -23 -10 10 -7 25 4 18 6 -3 10
3 10 15 0 12 5 18 10 15 6 -3 10 -14 10 -25z m-2950 16 c0 -2 -7 -7 -16 -10
-8 -3 -12 -2 -9 4 6 10 25 14 25 6z m897 -11 c0 -8 -4 -15 -9 -15 -10 0 -11
14 -1 23 9 10 10 9 10 -8z m1283 6 c0 -13 -29 -35 -37 -27 -3 3 -1 6 5 6 6 0
9 7 6 15 -4 9 0 15 10 15 9 0 16 -4 16 -9z m82 -13 c-7 -7 -12 -8 -12 -2 0 14
12 26 19 19 2 -3 -1 -11 -7 -17z m25 0 c-3 -8 -6 -5 -6 6 -1 11 2 17 5 13 3
-3 4 -12 1 -19z m87 7 c-4 -8 -10 -15 -15 -15 -4 0 -6 7 -3 15 4 8 10 15 15
15 4 0 6 -7 3 -15z m-764 -36 c0 -5 -9 -9 -20 -9 -11 0 -20 5 -20 11 0 5 5 7
12 3 8 -5 9 -2 4 11 -5 15 -4 16 9 5 8 -7 15 -16 15 -21z m-2320 7 c0 -11 -19
-15 -25 -6 -3 5 1 10 9 10 9 0 16 -2 16 -4z m1024 -5 c4 -5 -3 -7 -14 -4 -23
6 -26 13 -6 13 8 0 17 -4 20 -9z m136 5 c0 -2 -9 -6 -20 -9 -11 -3 -20 -1 -20
4 0 5 9 9 20 9 11 0 20 -2 20 -4z m150 0 c0 -3 -4 -8 -10 -11 -5 -3 -10 -1
-10 4 0 6 5 11 10 11 6 0 10 -2 10 -4z m2260 -6 c0 -5 -2 -10 -4 -10 -2 0 -11
-2 -19 -5 -8 -4 -14 0 -14 10 0 8 9 15 19 15 10 0 18 -4 18 -10z m-4493 -22
c-3 -8 -6 -5 -6 6 -1 11 2 17 5 13 3 -3 4 -12 1 -19z m2980 -4 c2 -10 0 -13
-3 -6 -8 17 -25 15 -18 -3 5 -11 2 -13 -10 -9 -19 7 -20 16 -4 32 16 16 32 10
35 -14z m370 12 c0 -8 -6 -12 -15 -8 -10 3 -13 1 -8 -6 4 -7 2 -12 -3 -12 -15
0 -14 27 2 33 20 9 24 8 24 -7z m1046 -29 c-9 -15 -21 4 -15 25 5 21 6 21 12
2 4 -10 5 -22 3 -27z m368 14 c-14 -24 -47 -44 -61 -36 -16 10 -12 38 4 32 8
-3 24 3 37 14 26 23 35 19 20 -10z m-1321 -6 c0 -8 -4 -15 -10 -15 -5 0 -7 7
-4 15 4 8 8 15 10 15 2 0 4 -7 4 -15z m35 5 c3 -5 1 -10 -4 -10 -6 0 -11 5
-11 10 0 6 2 10 4 10 3 0 8 -4 11 -10z m1504 -5 c12 7 47 -22 37 -32 -5 -4
-11 -2 -13 5 -3 6 -13 12 -24 12 -12 0 -19 7 -18 18 0 10 3 12 6 4 2 -6 8 -10
12 -7z m-3929 -5 c0 -5 -4 -10 -10 -10 -5 0 -10 5 -10 10 0 6 5 10 10 10 6 0
10 -4 10 -10z m2529 -6 c7 5 9 1 5 -8 -7 -18 -20 -21 -29 -6 -4 6 -12 7 -18 3
-7 -4 -6 1 2 11 10 12 16 14 21 5 4 -6 13 -9 19 -5z m731 6 c0 -5 -7 -10 -16
-10 -8 0 -12 -4 -9 -10 3 -5 1 -10 -4 -10 -6 0 -11 9 -11 20 0 13 7 20 20 20
11 0 20 -4 20 -10z m-614 -12 c5 -8 2 -9 -9 -5 -10 3 -17 2 -17 -3 0 -6 5 -10
12 -10 6 0 9 -2 6 -5 -3 -3 -13 -3 -22 1 -13 5 -14 9 -5 20 14 17 25 18 35 2z
m514 -3 c0 -8 -7 -15 -15 -15 -8 0 -15 7 -15 15 0 8 7 15 15 15 8 0 15 -7 15
-15z m-1110 -5 c0 -5 -3 -10 -7 -11 -5 0 -16 -2 -25 -4 -10 -2 -18 3 -18 11 0
8 10 14 25 14 14 0 25 -4 25 -10z m710 -4 c0 -8 -5 -18 -10 -21 -17 -11 -40 3
-34 20 8 19 44 20 44 1z m110 -8 c0 -5 -4 -6 -10 -3 -5 3 -10 1 -10 -4 0 -6
-7 -11 -15 -11 -18 0 -19 12 -4 27 13 13 39 6 39 -9z m195 11 c4 -6 4 -13 0
-17 -3 -3 -10 0 -14 7 -7 11 -10 11 -14 0 -4 -10 -6 -9 -6 4 -1 19 24 23 34 6z
m525 -11 c0 -16 -3 -19 -11 -11 -6 6 -8 16 -5 22 11 17 16 13 16 -11z m-2140
8 c0 -2 -9 -6 -20 -9 -11 -3 -20 -1 -20 4 0 5 9 9 20 9 11 0 20 -2 20 -4z
m289 -20 c9 -10 8 -15 -2 -19 -8 -3 -13 3 -14 14 -2 23 1 24 16 5z m1221 0
c-7 -7 -13 -7 -20 0 -6 6 -3 10 10 10 13 0 16 -4 10 -10z m852 -18 c-9 -9 -12
-7 -12 12 0 19 3 21 12 12 9 -9 9 -15 0 -24z m-3162 18 c0 -3 -4 -8 -10 -11
-5 -3 -10 -1 -10 4 0 6 5 11 10 11 6 0 10 -2 10 -4z m167 -2 c-3 -3 -12 -4
-19 -1 -8 3 -5 6 6 6 11 1 17 -2 13 -5z m1310 -9 c0 -8 -4 -15 -9 -15 -10 0
-11 14 -1 23 9 10 10 9 10 -8z m1395 -17 c-9 -9 -12 -7 -12 12 0 19 3 21 12
12 9 -9 9 -15 0 -24z m-2557 13 c3 -5 0 -13 -6 -17 -7 -4 -9 -3 -5 4 3 6 -2
13 -11 15 -16 4 -16 5 -1 6 9 0 19 -3 23 -8z m745 -1 c0 -5 -2 -10 -4 -10 -3
0 -8 5 -11 10 -3 6 -1 10 4 10 6 0 11 -4 11 -10z m558 -2 c8 -10 4 -13 -14
-14 -24 -2 -31 6 -17 19 10 10 19 8 31 -5z m1176 -3 c3 -9 -1 -18 -10 -22 -19
-7 -26 0 -18 21 8 20 20 21 28 1z m309 -25 c-6 -22 -30 -34 -38 -20 -4 6 1 10
10 10 9 0 15 6 14 13 -1 6 -1 19 0 27 1 12 3 13 10 1 5 -7 6 -21 4 -31z m37
19 c0 -5 -4 -9 -10 -9 -5 0 -10 7 -10 16 0 8 5 12 10 9 6 -3 10 -10 10 -16z
m300 11 c0 -5 -4 -10 -10 -10 -5 0 -10 5 -10 10 0 6 5 10 10 10 6 0 10 -4 10
-10z m-3283 -16 c-3 -3 -12 -4 -19 -1 -8 3 -5 6 6 6 11 1 17 -2 13 -5z m1074
-4 c6 0 8 -4 4 -10 -3 -5 -13 -6 -22 -3 -11 4 -14 3 -9 -5 4 -7 3 -12 -2 -12
-12 0 -23 26 -14 34 3 4 12 4 20 1 7 -3 18 -5 23 -5z m1475 -6 c-3 -9 -6 -20
-6 -25 0 -17 -18 -9 -23 10 -6 23 0 31 21 31 9 0 12 -6 8 -16z m-1786 -4 c0
-5 -7 -7 -15 -4 -10 4 -15 0 -15 -12 0 -9 -3 -15 -6 -11 -11 10 4 37 21 37 8
0 15 -4 15 -10z m810 0 c-13 -9 -13 -10 0 -10 13 0 13 -1 0 -10 -23 -15 -29
-12 -23 10 3 11 13 20 22 20 14 0 14 -2 1 -10z m101 -27 c-8 -15 -10 -15 -11
-2 0 17 10 32 18 25 2 -3 -1 -13 -7 -23z m769 2 c0 -8 -7 -15 -15 -15 -13 0
-14 3 -3 15 16 18 18 18 18 0z m450 -8 c0 -18 -5 -23 -24 -22 -34 0 -43 13
-20 30 28 21 44 18 44 -8z m420 13 c0 -5 7 -10 15 -10 17 0 20 -16 5 -25 -6
-3 -13 1 -16 9 -3 9 -12 16 -20 16 -8 0 -14 5 -14 10 0 6 7 10 15 10 8 0 15
-4 15 -10z m-2120 -12 c0 -6 -3 -8 -7 -5 -3 4 -12 2 -20 -4 -13 -11 -19 2 -6
14 11 11 33 8 33 -5z m620 2 c-20 -13 -33 -13 -25 0 3 6 14 10 23 10 15 0 15
-2 2 -10z m130 0 c0 -11 -24 -30 -37 -30 -10 0 -11 5 -4 18 9 17 41 27 41 12z
m313 -10 c-3 -11 -8 -20 -12 -20 -4 0 -7 9 -8 20 -1 11 4 20 12 20 8 0 11 -7
8 -20z m100 4 c-5 -13 -7 -13 -14 -2 -7 10 -9 8 -9 -6 0 -11 -3 -17 -6 -13
-11 10 4 37 20 37 10 0 13 -6 9 -16z m-339 -9 c3 -8 1 -15 -4 -15 -6 0 -10 7
-10 15 0 8 2 15 4 15 2 0 6 -7 10 -15z m127 -10 c-4 -17 -6 -18 -9 -2 -2 9 -8
15 -13 12 -5 -4 -9 -2 -9 4 0 5 8 9 19 8 13 -1 17 -6 12 -22z m642 2 c-4 -7 1
-6 10 2 26 21 32 6 8 -18 -25 -25 -27 -25 -35 -6 -7 19 3 47 15 39 5 -3 6 -11
2 -17z m-3546 -2 c0 -8 -6 -15 -14 -15 -17 0 -17 17 0 23 6 3 12 6 13 6 0 1 1
-6 1 -14z m1136 0 c-3 -9 -8 -14 -10 -11 -3 3 -2 9 2 15 9 16 15 13 8 -4z
m511 -1 c4 -9 4 -19 1 -22 -3 -3 -5 0 -5 7 0 8 -8 11 -20 8 -22 -6 -28 8 -7
16 21 9 25 8 31 -9z m420 0 c9 -23 8 -24 -16 -23 -13 0 -18 3 -11 5 7 3 9 12
6 20 -3 8 -1 14 5 14 5 0 13 -7 16 -16z m-1068 -6 c5 -8 2 -9 -10 -5 -14 5
-17 3 -12 -8 3 -8 1 -15 -4 -15 -6 0 -10 9 -10 20 0 22 24 27 36 8z m337 5
c-7 -2 -19 -2 -25 0 -7 3 -2 5 12 5 14 0 19 -2 13 -5z m2160 -10 c-7 -2 -13
-14 -13 -24 0 -11 -4 -17 -10 -14 -5 3 -10 15 -10 26 0 13 7 19 23 18 12 0 16
-3 10 -6z m-1863 -13 c0 -5 -5 -10 -11 -10 -5 0 -7 5 -4 10 3 6 8 10 11 10 2
0 4 -4 4 -10z m570 -9 c0 -6 -5 -13 -12 -17 -7 -5 -8 -3 -3 6 6 9 2 10 -15 5
-15 -5 -20 -4 -16 4 9 13 46 15 46 2z m1583 -2 c29 0 30 -1 10 -9 -13 -5 -23
-14 -23 -20 0 -5 -14 -10 -30 -10 -18 0 -33 -6 -36 -15 -6 -14 -8 -14 -19 1
-11 15 -13 15 -20 -7 -6 -20 -8 -21 -12 -6 -2 10 -10 17 -16 16 -24 -3 -37 1
-37 12 0 6 11 9 24 7 13 -1 30 3 39 10 10 9 17 10 22 2 10 -16 23 -12 30 11 4
13 12 18 22 15 8 -3 29 -6 46 -7z m-2333 -9 c12 -7 12 -12 2 -22 -9 -9 -12 -9
-12 5 0 11 -5 14 -17 10 -11 -4 -14 -3 -9 5 9 14 16 15 36 2z m320 -5 c0 -9
-9 -15 -22 -14 -20 1 -20 2 -4 6 15 4 16 7 5 14 -11 7 -11 9 4 9 9 0 17 -7 17
-15z m1630 0 c0 -9 -6 -12 -15 -9 -8 4 -12 10 -9 15 8 14 24 10 24 -6z m586
-5 c0 -20 -7 -25 -19 -14 -7 7 2 34 12 34 4 0 7 -9 7 -20z m-5411 0 c3 -5 1
-10 -4 -10 -6 0 -11 5 -11 10 0 6 2 10 4 10 3 0 8 -4 11 -10z m3745 1 c0 -6
-5 -13 -10 -16 -15 -9 -43 3 -35 15 8 13 45 13 45 1z m-1875 -11 c3 -5 1 -10
-4 -10 -6 0 -11 5 -11 10 0 6 2 10 4 10 3 0 8 -4 11 -10z m1455 -15 c0 -13
-29 -29 -37 -21 -3 2 0 14 7 25 11 22 30 20 30 -4z m1415 15 c4 -6 -1 -7 -11
-3 -12 4 -15 3 -10 -5 4 -7 1 -12 -8 -12 -17 0 -21 12 -9 23 10 10 31 8 38 -3z
m-2048 -6 c-3 -3 -12 -4 -19 -1 -8 3 -5 6 6 6 11 1 17 -2 13 -5z m1158 -3
l-20 -8 20 -5 c18 -5 18 -6 -2 -7 -14 -1 -23 5 -23 14 0 9 9 15 23 14 21 0 21
-1 2 -8z m685 2 c0 -14 -19 -38 -25 -32 -8 8 5 39 16 39 5 0 9 -3 9 -7z m-566
-18 c3 -8 1 -15 -4 -15 -6 0 -10 7 -10 15 0 8 2 15 4 15 2 0 6 -7 10 -15z
m131 -4 c0 -8 -7 -16 -15 -18 -13 -4 -13 -3 0 6 8 5 11 13 7 17 -3 4 -13 1
-22 -6 -15 -12 -22 0 -8 14 11 11 38 2 38 -13z m104 10 c9 -6 11 -15 6 -27 -8
-18 -8 -18 -12 -1 -3 9 -9 17 -14 17 -5 0 -9 5 -9 10 0 12 10 13 29 1z m114 2
c-7 -2 -13 -11 -13 -19 0 -8 -4 -14 -10 -14 -5 0 -10 4 -10 8 0 12 22 32 35
31 5 0 4 -3 -2 -6z m117 -7 c0 -15 -37 -32 -47 -22 -4 3 1 6 10 6 9 0 19 5 23
12 5 8 2 9 -9 5 -10 -3 -17 -2 -17 3 0 6 9 10 20 10 11 0 20 -6 20 -14z m210
5 c0 -6 -4 -13 -10 -16 -5 -3 -10 0 -10 7 0 10 -3 9 -10 -2 -5 -8 -12 -11 -15
-8 -4 4 -4 11 0 17 8 13 45 15 45 2z m930 -6 c0 -8 -7 -15 -16 -15 -14 0 -14
3 -4 15 7 8 14 15 16 15 2 0 4 -7 4 -15z m-4725 -13 c-3 -3 -11 0 -18 7 -9 10
-8 11 6 5 10 -3 15 -9 12 -12z m1659 9 c3 -5 -3 -11 -15 -14 -16 -4 -18 -3 -8
9 13 16 16 17 23 5z m502 -13 c4 -7 4 -10 -1 -6 -4 4 -14 0 -21 -10 -15 -20
-27 -12 -18 12 7 19 30 21 40 4z m442 -5 c-2 -10 -11 -18 -21 -19 -12 -1 -13
-1 -2 3 18 5 20 19 3 26 -8 3 -5 6 5 6 12 1 17 -5 15 -16z m882 13 c0 -3 -4
-8 -10 -11 -5 -3 -10 -1 -10 4 0 6 5 11 10 11 6 0 10 -2 10 -4z m690 -23 c0
-9 -3 -13 -7 -10 -3 4 -12 2 -20 -5 -21 -17 -28 0 -8 22 19 21 35 18 35 -7z
m-100 -12 c0 -25 -25 -46 -36 -30 -4 7 -2 15 4 17 7 2 12 10 12 18 0 8 5 14
10 14 6 0 10 -8 10 -19z m-2111 -9 c-7 -3 -17 -10 -21 -16 -5 -7 -8 -5 -8 5 0
22 9 29 28 21 13 -5 14 -6 1 -10z m336 8 c3 -5 -1 -10 -10 -10 -9 0 -13 5 -10
10 3 6 8 10 10 10 2 0 7 -4 10 -10z m404 -7 c-13 -15 -12 -16 9 -11 12 4 22 2
22 -3 0 -10 -33 -12 -43 -3 -8 8 3 34 15 34 6 0 4 -8 -3 -17z m1668 -5 c-3 -8
-6 -5 -6 6 -1 11 2 17 5 13 3 -3 4 -12 1 -19z m-403 -8 c-10 -4 -21 -6 -24 -3
-8 7 24 22 34 16 5 -4 1 -10 -10 -13z m366 0 c0 -5 -6 -10 -13 -10 -8 0 -22
-9 -32 -20 -10 -11 -22 -17 -26 -14 -5 3 -22 -4 -38 -16 -30 -20 -30 -20 -28
0 1 11 7 20 14 20 7 0 13 7 13 15 0 11 8 13 30 9 22 -5 31 -2 36 10 7 17 44
23 44 6z m-1510 -15 c-8 -10 -9 -15 -2 -15 6 0 16 8 21 18 9 15 10 15 11 1 0
-18 -26 -33 -41 -23 -9 5 6 34 18 34 3 0 0 -7 -7 -15z m133 0 c-3 -9 -8 -14
-10 -11 -3 3 -2 9 2 15 9 16 15 13 8 -4z m931 6 c3 -4 -1 -17 -9 -27 -13 -17
-14 -17 -9 -1 5 13 2 16 -10 11 -12 -5 -15 -2 -10 10 7 17 29 22 38 7z m-2957
-23 c-3 -8 -6 -5 -6 6 -1 11 2 17 5 13 3 -3 4 -12 1 -19z m829 2 c0 -11 -4
-20 -8 -20 -4 0 -8 9 -8 20 0 11 4 20 8 20 4 0 8 -9 8 -20z m679 1 c3 -5 0
-13 -6 -17 -7 -4 -9 -3 -5 4 3 6 -2 13 -11 15 -16 4 -16 5 -1 6 9 0 19 -3 23
-8z m665 -8 c0 -10 -4 -14 -8 -8 -4 6 -11 13 -16 18 -5 4 -2 7 7 7 10 0 17 -8
17 -17z m680 5 c0 -4 -7 -8 -15 -8 -8 0 -15 -8 -16 -17 0 -11 -2 -13 -6 -5 -7
19 3 39 21 39 9 0 16 -4 16 -9z m-2533 -4 c-3 -3 -12 -4 -19 -1 -8 3 -5 6 6 6
11 1 17 -2 13 -5z m335 -1 c-6 -2 -9 -10 -6 -15 4 -7 2 -8 -5 -4 -13 9 -5 26
12 25 9 0 8 -2 -1 -6z m514 -5 c5 -7 2 -9 -9 -5 -11 4 -14 2 -10 -9 3 -7 0
-14 -6 -14 -12 0 -15 23 -4 33 10 10 21 8 29 -5z m1129 2 c4 -6 3 -10 -2 -9
-20 3 -34 -2 -28 -11 3 -5 -1 -10 -9 -10 -20 0 -20 5 0 24 18 19 30 20 39 6z
m449 -15 c-3 -8 -12 -11 -20 -8 -15 5 -18 16 -8 26 11 10 33 -4 28 -18z m1061
-14 c-10 -16 -25 -3 -25 22 0 20 1 20 16 5 9 -9 13 -21 9 -27z m-1406 12 c0
-11 -3 -13 -6 -5 -2 6 -9 10 -14 6 -5 -3 -9 0 -9 5 0 6 7 11 15 11 8 0 15 -8
14 -17z m118 10 c-9 -2 -15 -9 -12 -14 4 -5 -1 -9 -9 -9 -9 0 -16 4 -16 9 0
11 19 20 40 19 10 0 9 -2 -3 -5z m123 -2 c0 -5 -7 -14 -15 -21 -11 -9 -15 -9
-15 -1 0 7 -4 9 -10 6 -6 -3 -7 1 -4 9 6 17 44 22 44 7z m-1020 -11 c12 -8 13
-11 2 -22 -9 -8 -12 -9 -10 -1 2 6 -1 11 -7 11 -5 0 -9 -4 -8 -9 2 -4 -4 -6
-12 -2 -12 4 -13 9 -4 19 13 16 19 17 39 4z m1600 -3 c0 -19 -20 -36 -37 -30
-11 5 -11 9 3 24 20 22 34 24 34 6z m-3983 -3 c-3 -3 -12 -4 -19 -1 -8 3 -5 6
6 6 11 1 17 -2 13 -5z m1250 -10 c-3 -3 -12 -4 -19 -1 -8 3 -5 6 6 6 11 1 17
-2 13 -5z m-1272 -14 c3 -5 1 -10 -4 -10 -6 0 -11 5 -11 10 0 6 2 10 4 10 3 0
8 -4 11 -10z m2533 -13 c2 -10 -3 -17 -12 -17 -18 0 -29 16 -21 31 9 14 29 6
33 -14z m-973 -7 c3 -6 -1 -7 -9 -4 -18 7 -21 14 -7 14 6 0 13 -4 16 -10z
m2255 -6 c0 -8 -5 -12 -10 -9 -6 4 -8 11 -5 16 9 14 15 11 15 -7z m-1178 -16
c-7 -7 -12 -8 -12 -2 0 14 12 26 19 19 2 -3 -1 -11 -7 -17z m-418 5 c-5 -5
-12 -12 -16 -18 -4 -6 -8 -2 -8 8 0 9 7 17 17 17 9 0 12 -3 7 -7z m576 -7 c0
-8 -5 -18 -12 -22 -6 -4 -8 -3 -4 4 3 6 2 13 -4 17 -5 3 -10 1 -10 -6 0 -7 -3
-10 -6 -6 -9 9 5 27 22 27 8 0 14 -6 14 -14z m933 -11 c-6 -16 -16 -19 -26 -8
-9 8 13 34 24 28 4 -3 6 -12 2 -20z m-1848 5 c4 -6 -6 -10 -22 -10 -22 0 -25
2 -13 10 19 12 27 12 35 0z m1029 4 c20 -8 9 -34 -15 -34 -21 0 -22 1 -13 24
7 18 7 18 28 10z m983 -26 c-3 -7 -5 -2 -5 12 0 14 2 19 5 13 2 -7 2 -19 0
-25z m-624 5 c-7 -3 -13 -11 -13 -19 0 -8 -5 -14 -11 -14 -5 0 -7 6 -3 13 15
26 27 37 33 31 3 -4 0 -9 -6 -11z m349 10 c-6 -2 -10 -9 -6 -14 3 -5 0 -9 -5
-9 -6 0 -11 7 -11 15 0 8 8 15 18 14 10 0 12 -3 4 -6z m-452 -19 c0 -2 -9 -4
-21 -4 -11 0 -18 4 -14 10 5 8 35 3 35 -6z m239 -1 c0 -11 -3 -13 -6 -5 -7 17
-21 15 -26 -5 -4 -14 -5 -12 -6 5 -1 16 5 22 19 22 13 0 20 -6 19 -17z m111 3
c0 -8 -4 -18 -10 -21 -6 -4 -7 1 -3 11 4 12 3 15 -5 10 -7 -4 -12 -2 -12 3 0
6 7 11 15 11 8 0 15 -6 15 -14z m-3069 -13 c13 -16 12 -17 -3 -4 -10 7 -18 15
-18 17 0 8 8 3 21 -13z m2556 -5 c-3 -8 -6 -5 -6 6 -1 11 2 17 5 13 3 -3 4
-12 1 -19z m1128 12 c-3 -5 -11 -10 -16 -10 -6 0 -7 5 -4 10 3 6 11 10 16 10
6 0 7 -4 4 -10z m-1786 -9 c9 -6 10 -11 2 -15 -6 -4 -11 -2 -11 5 0 6 -8 9
-20 6 -11 -3 -18 -1 -14 4 7 11 25 11 43 0z m2321 -7 c0 -8 -5 -12 -10 -9 -6
4 -8 11 -5 16 9 14 15 11 15 -7z m-2990 -1 c-8 -3 -18 -11 -22 -17 -5 -7 -8
-4 -8 7 0 11 7 17 23 16 15 0 17 -2 7 -6z m345 -3 c3 -5 2 -10 -4 -10 -5 0
-13 5 -16 10 -3 6 -2 10 4 10 5 0 13 -4 16 -10z m1828 -30 c-10 -9 -19 -13
-21 -9 -5 12 21 38 31 32 5 -3 0 -13 -10 -23z m154 8 c-3 -8 -6 -5 -6 6 -1 11
2 17 5 13 3 -3 4 -12 1 -19z m-3396 -11 c-10 -9 -11 -8 -5 6 3 10 9 15 12 12
3 -3 0 -11 -7 -18z m1851 16 c-6 -2 -9 -10 -6 -15 4 -7 2 -8 -5 -4 -13 9 -5
26 12 25 9 0 8 -2 -1 -6z m158 -27 c0 -8 -4 -17 -9 -21 -6 -3 -9 4 -8 15 1 23
17 28 17 6z m1620 -12 c0 -8 -4 -14 -10 -14 -5 0 -10 9 -10 21 0 11 5 17 10
14 6 -3 10 -13 10 -21z m382 -2 c-6 -2 -8 -10 -5 -18 3 -8 0 -14 -5 -14 -6 0
-10 13 -10 30 1 25 3 28 16 18 8 -7 10 -14 4 -16z m-3326 0 c1 -7 0 -8 -3 -2
-8 16 -33 11 -33 -7 0 -9 -3 -14 -6 -10 -4 3 -4 13 0 22 7 19 38 16 42 -3z
m860 6 c5 -8 2 -9 -11 -4 -11 4 -22 2 -26 -6 -4 -7 -11 -9 -14 -6 -11 11 5 28
25 28 10 0 22 -5 26 -12z m434 2 c0 -5 -5 -10 -11 -10 -5 0 -7 5 -4 10 3 6 8
10 11 10 2 0 4 -4 4 -10z m147 -5 c0 -8 -4 -15 -9 -15 -4 0 -8 7 -8 15 0 8 4
15 8 15 5 0 9 -7 9 -15z m869 -17 c-3 -13 -5 -25 -6 -28 0 -3 -5 3 -11 13 -10
18 -5 37 12 37 5 0 7 -10 5 -22z m98 7 c-4 -8 -8 -15 -10 -15 -2 0 -4 7 -4 15
0 8 4 15 10 15 5 0 7 -7 4 -15z m-827 -1 c-3 -3 -12 -4 -19 -1 -8 3 -5 6 6 6
11 1 17 -2 13 -5z m1285 -14 c-13 -10 -30 -16 -39 -13 -14 6 -14 8 3 20 10 7
27 13 38 13 20 -1 20 -1 -2 -20z m508 0 c12 -23 5 -26 -16 -6 -16 17 -18 26
-4 26 5 0 14 -9 20 -20z m-2405 -10 c4 -6 1 -9 -7 -8 -7 2 -12 -5 -12 -14 1
-10 -2 -18 -7 -18 -13 0 -11 24 3 38 15 15 15 15 23 2z m728 -11 c-4 -15 -8
-17 -14 -8 -8 14 -3 29 11 29 4 0 6 -9 3 -21z m147 6 c0 -8 -2 -15 -4 -15 -2
0 -11 -3 -20 -6 -9 -3 -16 -1 -16 5 0 6 3 10 8 10 19 -3 25 2 12 11 -13 8 -12
10 3 10 9 0 17 -7 17 -15z m108 8 c-10 -2 -18 -9 -18 -14 0 -6 4 -8 9 -4 5 3
12 1 16 -5 7 -11 -28 -14 -38 -3 -10 10 13 33 32 32 13 -1 13 -2 -1 -6z m109
-25 c-3 -7 -5 -2 -5 12 0 14 2 19 5 13 2 -7 2 -19 0 -25z m143 25 c-8 -3 -18
-11 -22 -17 -5 -7 -8 -4 -8 7 0 11 7 17 23 16 15 0 17 -2 7 -6z m-627 -10 c-7
-2 -19 -2 -25 0 -7 3 -2 5 12 5 14 0 19 -2 13 -5z m-943 -7 c0 -2 -7 -7 -16
-10 -8 -3 -12 -2 -9 4 6 10 25 14 25 6z m500 -14 c0 -11 -3 -12 -13 -3 -8 6
-17 8 -20 4 -4 -3 -7 -1 -7 5 0 6 9 10 20 9 11 -1 20 -8 20 -15z m1615 8 c-3
-5 -12 -10 -18 -10 -7 0 -6 4 3 10 19 12 23 12 15 0z m-2674 -13 c-6 -8 -7
-18 -3 -22 4 -5 2 -5 -5 -1 -14 8 -6 36 9 36 7 0 6 -5 -1 -13z m2899 -22 c7
-9 8 -15 2 -15 -5 0 -12 7 -16 15 -3 8 -4 15 -2 15 2 0 9 -7 16 -15z m-2575
-8 c-11 -9 -15 -19 -10 -28 6 -11 5 -12 -5 -2 -11 10 -11 15 0 28 7 8 17 15
23 15 6 0 3 -6 -8 -13z m342 -11 c-3 -8 -1 -17 6 -20 7 -2 4 -5 -5 -5 -12 -1
-18 6 -18 19 0 11 5 20 11 20 6 0 9 -6 6 -14z m1833 4 c0 -5 -4 -10 -10 -10
-5 0 -10 5 -10 10 0 6 5 10 10 10 6 0 10 -4 10 -10z m-1185 -10 c-3 -5 -12
-10 -18 -10 -7 0 -6 4 3 10 19 12 23 12 15 0z m1008 -33 c-9 -16 -26 12 -18
30 7 17 8 17 15 -2 4 -11 5 -24 3 -28z m936 -12 c1 -17 -1 -17 -9 -5 -5 8 -9
26 -9 40 0 23 1 23 9 5 5 -11 9 -29 9 -40z m76 44 c11 -16 1 -19 -13 -3 -7 8
-8 14 -3 14 5 0 13 -5 16 -11z m-1111 -17 c3 -5 -1 -9 -9 -9 -8 0 -12 4 -9 9
3 4 7 8 9 8 2 0 6 -4 9 -8z m-2088 -14 c4 -6 3 -8 -4 -4 -6 3 -13 2 -17 -4 -3
-5 -12 -10 -18 -10 -7 0 -3 7 7 15 24 18 23 18 32 3z m1451 -14 c-9 -9 -28 6
-21 18 4 6 10 6 17 -1 6 -6 8 -13 4 -17z m-1112 -12 c-6 -7 -34 11 -29 19 3 5
11 3 19 -4 7 -6 12 -13 10 -15z m328 13 c-3 -9 -8 -14 -10 -11 -3 3 -2 9 2 15
9 16 15 13 8 -4z m922 -14 c-6 -5 -25 10 -25 20 0 5 6 4 14 -3 8 -7 12 -15 11
-17z m239 14 c3 -8 1 -15 -4 -15 -6 0 -10 7 -10 15 0 8 2 15 4 15 2 0 6 -7 10
-15z m26 5 c0 -5 -2 -10 -4 -10 -3 0 -8 5 -11 10 -3 6 -1 10 4 10 6 0 11 -4
11 -10z m115 -9 c-8 -14 -35 -14 -35 -1 0 5 7 7 15 4 8 -4 15 -1 15 7 0 7 3
10 6 6 3 -3 3 -10 -1 -16z m-1116 -4 c-2 -1 -13 -9 -24 -17 -19 -14 -19 -14
-6 3 7 9 18 17 24 17 6 0 8 -1 6 -3z m2168 -29 c-3 -8 -6 -5 -6 6 -1 11 2 17
5 13 3 -3 4 -12 1 -19z m-2913 -13 c-4 -8 -11 -15 -16 -15 -6 0 -5 6 2 15 7 8
14 15 16 15 2 0 1 -7 -2 -15z m2366 0 c-7 -9 -15 -13 -17 -11 -7 7 7 26 19 26
6 0 6 -6 -2 -15z m-2020 -11 c0 -8 -5 -12 -10 -9 -6 4 -8 11 -5 16 9 14 15 11
15 -7z m407 10 c-3 -3 -12 -4 -19 -1 -8 3 -5 6 6 6 11 1 17 -2 13 -5z m247
-29 c3 -8 1 -15 -4 -15 -6 0 -10 7 -10 15 0 8 2 15 4 15 2 0 6 -7 10 -15z
m174 -5 c4 -13 3 -13 -10 -2 -13 10 -17 10 -21 0 -3 -8 -6 -6 -6 5 -1 22 30
20 37 -3z m132 0 c0 -5 -4 -10 -10 -10 -5 0 -10 5 -10 10 0 6 5 10 10 10 6 0
10 -4 10 -10z m851 -13 c-10 -9 -11 -8 -5 6 3 10 9 15 12 12 3 -3 0 -11 -7
-18z m-701 -2 c0 -2 -9 -3 -19 -2 -11 0 -18 5 -15 9 4 6 34 0 34 -7z m495 -5
c3 -5 -2 -10 -12 -10 -15 0 -16 -2 -3 -10 8 -5 10 -10 4 -10 -15 0 -36 25 -27
33 10 10 31 8 38 -3z m-2749 -12 c4 -7 3 -8 -4 -4 -7 4 -12 2 -12 -5 0 -7 -3
-10 -6 -6 -6 5 3 27 11 27 2 0 7 -5 11 -12z m944 8 c0 -2 -6 -9 -14 -15 -11
-9 -16 -9 -22 0 -4 8 -3 9 4 5 7 -4 12 -2 12 3 0 6 5 11 10 11 6 0 10 -2 10
-4z m1420 -6 c-20 -13 -33 -13 -25 0 3 6 14 10 23 10 15 0 15 -2 2 -10z m261
-4 c12 7 12 5 0 -9 -15 -19 -31 -14 -31 11 0 14 2 14 9 3 5 -8 14 -10 22 -5z
m1009 -6 c0 -5 -2 -10 -4 -10 -3 0 -8 5 -11 10 -3 6 -1 10 4 10 6 0 11 -4 11
-10z m-3275 -10 c3 -5 1 -10 -4 -10 -6 0 -11 5 -11 10 0 6 2 10 4 10 3 0 8 -4
11 -10z m1115 -5 c0 -13 -4 -14 -20 -5 -12 6 -20 7 -20 1 0 -5 6 -12 13 -14 9
-4 9 -6 0 -6 -15 -1 -26 16 -18 29 10 16 45 12 45 -5z m2270 -5 c0 -5 -4 -10
-10 -10 -5 0 -10 5 -10 10 0 6 5 10 10 10 6 0 10 -4 10 -10z m-5144 -12 c5 -7
2 -9 -9 -5 -10 4 -17 0 -20 -11 -3 -12 -5 -11 -6 6 -1 23 22 31 35 10z m2111
-10 c-3 -8 -6 -5 -6 6 -1 11 2 17 5 13 3 -3 4 -12 1 -19z m-2397 2 c0 -5 -7
-10 -15 -10 -8 0 -15 5 -15 10 0 6 7 10 15 10 8 0 15 -4 15 -10z m3300 -4 c0
-8 -5 -18 -12 -22 -6 -4 -8 -3 -4 4 3 6 -2 15 -11 21 -16 9 -16 10 5 11 13 0
22 -6 22 -14z m124 -10 c-21 -15 -30 -14 -19 3 3 6 14 11 23 11 13 0 13 -2 -4
-14z m1306 -16 c0 -5 -2 -10 -4 -10 -3 0 -8 5 -11 10 -3 6 -1 10 4 10 6 0 11
-4 11 -10z m-2560 -4 c0 -3 -4 -8 -10 -11 -5 -3 -10 -1 -10 4 0 6 5 11 10 11
6 0 10 -2 10 -4z m1400 -6 c0 -5 -2 -10 -4 -10 -3 0 -8 5 -11 10 -3 6 -1 10 4
10 6 0 11 -4 11 -10z m923 -7 c-7 -3 -13 -9 -13 -15 0 -6 7 -7 16 -4 8 3 12 2
9 -4 -9 -15 -35 -12 -35 3 0 16 22 39 29 30 3 -3 0 -8 -6 -10z m127 2 c0 -8
-7 -15 -15 -15 -16 0 -20 12 -8 23 11 12 23 8 23 -8z m-2845 -5 c3 -6 -1 -7
-9 -4 -18 7 -21 14 -7 14 6 0 13 -4 16 -10z m775 1 c0 -5 -9 -7 -20 -4 -11 3
-20 7 -20 9 0 2 9 4 20 4 11 0 20 -4 20 -9z m1147 -23 c-3 -8 -6 -5 -6 6 -1
11 2 17 5 13 3 -3 4 -12 1 -19z m169 10 c4 -7 4 -10 -1 -6 -4 4 -17 2 -29 -4
-19 -10 -20 -10 -7 5 16 20 27 21 37 5z m396 -23 c-3 -5 -7 -4 -9 2 -3 7 -12
9 -21 6 -15 -6 -15 -4 -4 10 11 13 17 14 27 4 7 -7 10 -16 7 -22z m128 13 c0
-6 -3 -8 -7 -5 -3 4 -12 2 -20 -4 -16 -14 -18 2 -1 19 12 12 28 7 28 -10z
m1028 5 c2 -8 -5 -13 -17 -13 -12 0 -21 6 -21 16 0 18 31 15 38 -3z m-3448 -3
c0 -5 -10 -10 -22 -9 -22 0 -22 1 -3 9 11 5 21 9 23 9 1 1 2 -3 2 -9z m1110 0
c0 -5 -8 -10 -17 -10 -15 0 -16 2 -3 10 19 12 20 12 20 0z m900 -5 c0 -8 -4
-15 -10 -15 -5 0 -7 7 -4 15 4 8 8 15 10 15 2 0 4 -7 4 -15z m1005 5 c3 -5 1
-10 -4 -10 -6 0 -11 5 -11 10 0 6 2 10 4 10 3 0 8 -4 11 -10z m-865 -4 c0 -2
-8 -10 -17 -17 -16 -13 -17 -12 -4 4 13 16 21 21 21 13z m-1795 -26 c3 -6 -1
-7 -9 -4 -10 4 -16 1 -16 -7 0 -7 -3 -10 -6 -6 -7 7 4 27 16 27 5 0 12 -4 15
-10z m353 3 c-10 -2 -18 -9 -18 -15 0 -6 -3 -9 -6 -5 -10 10 6 27 24 26 15 -1
15 -2 0 -6z m387 -11 c-3 -3 -11 0 -18 7 -9 10 -8 11 6 5 10 -3 15 -9 12 -12z
m1842 -2 c-1 -22 -17 -28 -17 -7 0 12 9 27 16 27 2 0 2 -9 1 -20z m-1690 4
c-3 -3 -12 -4 -19 -1 -8 3 -5 6 6 6 11 1 17 -2 13 -5z m1490 -23 c1 -11 -4
-25 -11 -30 -13 -11 -14 0 -7 42 2 15 17 6 18 -12z m-1367 -5 c0 -3 -4 -8 -10
-11 -5 -3 -10 -1 -10 4 0 6 5 11 10 11 6 0 10 -2 10 -4z m-520 -10 c0 -3 -4
-8 -10 -11 -5 -3 -10 -1 -10 4 0 6 5 11 10 11 6 0 10 -2 10 -4z m670 -10 c0
-2 -7 -7 -16 -10 -8 -3 -12 -2 -9 4 6 10 25 14 25 6z m1100 -5 c0 -5 -7 -14
-15 -21 -10 -9 -15 -9 -15 -1 0 6 6 11 13 11 8 0 7 4 -3 10 -13 8 -12 10 3 10
9 0 17 -4 17 -9z m-950 -11 c0 -5 -5 -10 -11 -10 -5 0 -7 5 -4 10 3 6 8 10 11
10 2 0 4 -4 4 -10z m-1197 -17 c-3 -7 -9 -10 -14 -7 -14 8 -11 21 5 21 8 0 12
-6 9 -14z m2627 2 c-7 -8 -17 -15 -22 -15 -6 0 -5 7 2 15 7 8 17 15 22 15 6 0
5 -7 -2 -15z m-1270 1 c0 -2 -9 -6 -20 -9 -11 -3 -20 -1 -20 4 0 5 9 9 20 9
11 0 20 -2 20 -4z m130 -3 c-8 -3 -18 -11 -22 -17 -5 -7 -8 -4 -8 7 0 11 7 17
23 16 15 0 17 -2 7 -6z m517 -8 c0 -8 -4 -15 -9 -15 -4 0 -8 7 -8 15 0 8 4 15
8 15 5 0 9 -7 9 -15z m-2237 -5 c0 -5 -2 -10 -4 -10 -3 0 -8 5 -11 10 -3 6 -1
10 4 10 6 0 11 -4 11 -10z m1845 0 c-3 -5 -11 -10 -16 -10 -6 0 -7 5 -4 10 3
6 11 10 16 10 6 0 7 -4 4 -10z m252 -12 c-3 -8 -6 -5 -6 6 -1 11 2 17 5 13 3
-3 4 -12 1 -19z m-1337 8 c0 -11 -19 -15 -25 -6 -3 5 1 10 9 10 9 0 16 -2 16
-4z m2010 0 c0 -3 -4 -8 -10 -11 -5 -3 -10 -1 -10 4 0 6 5 11 10 11 6 0 10 -2
10 -4z m-2428 -38 c-8 -8 -9 -4 -5 13 4 13 8 18 11 10 2 -7 -1 -18 -6 -23z
m-349 5 c-7 -2 -19 -2 -25 0 -7 3 -2 5 12 5 14 0 19 -2 13 -5z m2657 -35 c0
-5 -4 -8 -10 -8 -5 0 -10 10 -10 23 0 18 2 19 10 7 5 -8 10 -18 10 -22z
m-1745 12 c3 -5 1 -10 -4 -10 -6 0 -11 5 -11 10 0 6 2 10 4 10 3 0 8 -4 11
-10z m160 0 c3 -5 1 -10 -4 -10 -6 0 -11 5 -11 10 0 6 2 10 4 10 3 0 8 -4 11
-10z m-555 -10 c-20 -13 -33 -13 -25 0 3 6 14 10 23 10 15 0 15 -2 2 -10z
m2377 -12 c-3 -8 -6 -5 -6 6 -1 11 2 17 5 13 3 -3 4 -12 1 -19z m-2780 -10
c-3 -8 -6 -5 -6 6 -1 11 2 17 5 13 3 -3 4 -12 1 -19z m378 -6 c-3 -3 -11 0
-18 7 -9 10 -8 11 6 5 10 -3 15 -9 12 -12z m1695 -12 c-7 -4 -9 -13 -6 -19 4
-6 2 -11 -3 -11 -12 0 -14 11 -5 34 3 9 11 13 16 10 6 -4 6 -9 -2 -14z m-674
-8 c1 -7 0 -8 -3 -2 -2 5 -9 8 -14 4 -5 -3 -9 0 -9 6 0 15 23 7 26 -8z m149
-2 c3 -5 -1 -10 -10 -10 -9 0 -13 5 -10 10 3 6 8 10 10 10 2 0 7 -4 10 -10z
m411 -2 c4 -7 4 -10 -1 -6 -11 11 -36 -12 -28 -25 3 -6 1 -7 -5 -3 -9 5 -9 13
-2 27 12 22 26 24 36 7z m242 -7 c3 -8 -1 -12 -9 -9 -7 2 -15 10 -17 17 -3 8
1 12 9 9 7 -2 15 -10 17 -17z m506 10 c3 -5 -1 -11 -9 -14 -9 -4 -12 -1 -8 9
6 16 10 17 17 5z m-2544 -9 c0 -4 -9 -8 -20 -8 -11 0 -20 4 -20 8 0 4 9 8 20
8 11 0 20 -4 20 -8z m1665 -2 c3 -6 -1 -7 -9 -4 -18 7 -21 14 -7 14 6 0 13 -4
16 -10z m766 -43 c-10 -9 -11 -8 -5 6 3 10 9 15 12 12 3 -3 0 -11 -7 -18z
m-2693 -4 c-10 -2 -18 -12 -18 -20 0 -9 -3 -14 -6 -10 -12 11 5 37 23 36 17
-1 17 -2 1 -6z m955 -6 c3 -7 -5 -19 -16 -27 -20 -12 -21 -12 -8 4 13 15 13
19 0 27 -12 7 -11 9 2 9 9 0 19 -6 22 -13z m-575 -15 c-21 -4 -24 -18 -5 -25
7 -3 5 -6 -5 -6 -11 -1 -18 6 -18 18 0 21 18 32 35 22 6 -3 2 -7 -7 -9z m2227
9 c3 -5 0 -13 -6 -17 -7 -4 -9 -3 -5 4 3 5 0 13 -6 15 -9 4 -10 6 -1 6 6 1 14
-3 18 -8z m-245 -41 c0 -5 -5 -10 -11 -10 -5 0 -7 5 -4 10 3 6 8 10 11 10 2 0
4 -4 4 -10z m539 -17 c-8 -9 -16 -10 -22 -4 -13 13 0 31 19 24 11 -4 12 -8 3
-20z m-1499 13 c0 -2 -7 -6 -15 -10 -8 -3 -15 -1 -15 4 0 6 7 10 15 10 8 0 15
-2 15 -4z m710 -10 c0 -2 -7 -7 -16 -10 -8 -3 -12 -2 -9 4 6 10 25 14 25 6z
m270 -6 c0 -5 -5 -10 -11 -10 -5 0 -7 5 -4 10 3 6 8 10 11 10 2 0 4 -4 4 -10z
m-419 -27 c-12 -20 -14 -14 -5 12 4 9 9 14 11 11 3 -2 0 -13 -6 -23z m842 21
c3 -3 3 -12 0 -20 -4 -10 -8 -11 -18 -1 -7 7 -11 15 -8 20 5 9 17 9 26 1z
m-2688 -14 c3 -5 1 -10 -4 -10 -6 0 -11 5 -11 10 0 6 2 10 4 10 3 0 8 -4 11
-10z m2539 -35 c3 -8 1 -15 -4 -15 -6 0 -10 7 -10 15 0 8 2 15 4 15 2 0 6 -7
10 -15z m-2381 -32 c-7 -2 -19 -2 -25 0 -7 3 -2 5 12 5 14 0 19 -2 13 -5z
m131 -17 c-3 -9 -10 -16 -15 -16 -6 0 -5 9 1 21 13 24 24 20 14 -5z m2026 -21
c-7 -8 -17 -15 -22 -15 -5 0 -2 7 6 16 9 8 16 21 17 27 0 8 2 8 6 -1 3 -7 -1
-19 -7 -27z m-2414 13 c5 -7 3 -8 -5 -4 -7 5 -18 0 -26 -10 -8 -11 -15 -14
-15 -8 0 11 20 34 31 34 4 0 11 -5 15 -12z m2820 -24 c-4 -9 -9 -15 -11 -12
-3 3 -3 13 1 22 4 9 9 15 11 12 3 -3 3 -13 -1 -22z m-1536 6 c8 -5 11 -10 5
-10 -5 0 -17 5 -25 10 -8 5 -10 10 -5 10 6 0 17 -5 25 -10z m1010 6 c0 -14
-14 -36 -22 -36 -6 0 -4 8 3 17 12 15 12 16 -4 10 -11 -4 -16 -3 -12 3 6 10
35 14 35 6z m-1890 -20 c-7 -7 -14 -6 -21 1 -9 9 -7 12 9 10 14 -1 18 -5 12
-11z m3200 4 c0 -5 -5 -10 -11 -10 -5 0 -7 5 -4 10 3 6 8 10 11 10 2 0 4 -4 4
-10z m-3053 -6 c-3 -3 -12 -4 -19 -1 -8 3 -5 6 6 6 11 1 17 -2 13 -5z m1470 0
c-3 -3 -12 -4 -19 -1 -8 3 -5 6 6 6 11 1 17 -2 13 -5z m-2743 -30 c5 -14 4
-15 -9 -4 -17 14 -19 20 -6 20 5 0 12 -7 15 -16z m856 11 c0 -2 -10 -10 -22
-16 -21 -11 -22 -11 -9 4 13 16 31 23 31 12z m-636 -14 c3 -4 -6 -6 -19 -3
-14 2 -25 6 -25 8 0 8 39 4 44 -5z m3204 -15 c-7 -8 -16 -12 -21 -9 -11 7 2
23 19 23 12 0 12 -2 2 -14z m-1113 -6 c-3 -5 -12 -10 -18 -10 -7 0 -6 4 3 10
19 12 23 12 15 0z m1005 -15 c0 -8 -4 -15 -10 -15 -5 0 -7 7 -4 15 4 8 8 15
10 15 2 0 4 -7 4 -15z m-2307 -12 c3 -5 -5 -8 -18 -8 -13 0 -21 3 -18 8 2 4
10 7 18 7 8 0 16 -3 18 -7z m-672 -40 c13 -17 13 -17 -6 -3 -11 8 -22 16 -24
17 -2 2 0 3 6 3 6 0 17 -8 24 -17z m1536 -15 c-3 -8 -6 -5 -6 6 -1 11 2 17 5
13 3 -3 4 -12 1 -19z m-1137 -3 c0 -2 -9 -3 -19 -2 -11 0 -18 5 -15 9 4 6 34
0 34 -7z m1310 1 c0 -2 -8 -10 -17 -17 -16 -13 -17 -12 -4 4 13 16 21 21 21
13z m160 -10 c0 -3 -4 -8 -10 -11 -5 -3 -10 -1 -10 4 0 6 5 11 10 11 6 0 10
-2 10 -4z m-920 -26 c0 -5 -4 -10 -10 -10 -5 0 -10 5 -10 10 0 6 5 10 10 10 6
0 10 -4 10 -10z m-809 -17 c13 -16 12 -17 -3 -4 -10 7 -18 15 -18 17 0 8 8 3
21 -13z m3219 13 c0 -3 -4 -8 -10 -11 -5 -3 -10 -1 -10 4 0 6 5 11 10 11 6 0
10 -2 10 -4z m-2816 -15 c4 -5 -3 -7 -14 -4 -23 6 -26 13 -6 13 8 0 17 -4 20
-9z m1471 -9 c-3 -3 -11 0 -18 7 -9 10 -8 11 6 5 10 -3 15 -9 12 -12z m-890 1
c-11 -3 -23 -10 -27 -17 -5 -7 -8 -7 -8 0 0 16 11 24 34 23 20 -1 20 -1 1 -6z
m-1950 -13 c3 -6 -1 -7 -9 -4 -18 7 -21 14 -7 14 6 0 13 -4 16 -10z m2118 -7
c-7 -2 -19 -2 -25 0 -7 3 -2 5 12 5 14 0 19 -2 13 -5z m-2 -36 c-10 -9 -11 -8
-5 6 3 10 9 15 12 12 3 -3 0 -11 -7 -18z m1489 3 c0 -5 -5 -10 -11 -10 -5 0
-7 5 -4 10 3 6 8 10 11 10 2 0 4 -4 4 -10z m-146 -15 c-13 -10 -15 -14 -5 -15
8 0 12 -3 8 -6 -3 -3 -11 -3 -17 1 -13 8 5 35 23 35 6 0 2 -7 -9 -15z m-1794
-24 c0 -5 -7 -11 -14 -14 -10 -4 -13 -1 -9 9 6 15 23 19 23 5z m-430 -15 c0
-2 -9 -6 -20 -9 -11 -3 -18 -1 -14 4 5 9 34 13 34 5z m1643 -11 c-3 -9 -8 -14
-10 -11 -3 3 -2 9 2 15 9 16 15 13 8 -4z m157 -15 c0 -5 -4 -10 -10 -10 -5 0
-10 5 -10 10 0 6 5 10 10 10 6 0 10 -4 10 -10z m-1813 -26 c-3 -3 -12 -4 -19
-1 -8 3 -5 6 6 6 11 1 17 -2 13 -5z m180 -19 c1 -16 1 -17 -3 -2 -4 13 -11 16
-26 11 -14 -4 -18 -3 -13 5 11 18 40 8 42 -14z m741 8 c-10 -2 -18 -9 -18 -15
0 -6 -3 -9 -6 -5 -10 10 6 27 24 26 15 -1 15 -2 0 -6z m-618 -37 c0 -3 -4 -8
-10 -11 -5 -3 -10 -1 -10 4 0 6 5 11 10 11 6 0 10 -2 10 -4z m1983 -3 c-7 -2
-13 -11 -13 -19 0 -8 -4 -14 -9 -14 -5 0 -7 9 -4 20 3 11 13 20 22 19 10 0 11
-2 4 -6z m-149 -24 c-3 -6 0 -15 7 -20 9 -6 10 -9 2 -9 -15 0 -26 17 -18 30 3
6 8 10 11 10 3 0 2 -5 -2 -11z m-1669 -9 c-3 -5 -11 -10 -16 -10 -6 0 -7 5 -4
10 3 6 11 10 16 10 6 0 7 -4 4 -10z m965 6 c0 -2 -9 -6 -20 -9 -11 -3 -18 -1
-14 4 5 9 34 13 34 5z m-160 -16 c0 -5 -7 -7 -15 -4 -8 4 -15 8 -15 10 0 2 7
4 15 4 8 0 15 -4 15 -10z m-1066 -59 c4 -5 -3 -7 -14 -4 -23 6 -26 13 -6 13 8
0 17 -4 20 -9z m1243 -77 c-3 -3 -12 -4 -19 -1 -8 3 -5 6 6 6 11 1 17 -2 13
-5z m458 -4 c3 -5 1 -10 -4 -10 -6 0 -11 5 -11 10 0 6 2 10 4 10 3 0 8 -4 11
-10z m245 6 c0 -3 -4 -8 -10 -11 -5 -3 -10 -1 -10 4 0 6 5 11 10 11 6 0 10 -2
10 -4z m-1633 -12 c-3 -3 -12 -4 -19 -1 -8 3 -5 6 6 6 11 1 17 -2 13 -5z m148
-44 c-3 -5 -11 -10 -16 -10 -6 0 -7 5 -4 10 3 6 11 10 16 10 6 0 7 -4 4 -10z
m-285 -74 c0 -2 -7 -7 -16 -10 -8 -3 -12 -2 -9 4 6 10 25 14 25 6z m1103 -36
c-3 -11 -9 -17 -15 -14 -5 3 -4 12 3 20 16 19 18 18 12 -6z m167 10 c0 -5 -5
-10 -11 -10 -5 0 -7 5 -4 10 3 6 8 10 11 10 2 0 4 -4 4 -10z m1440 -30 c0 -11
-4 -20 -9 -20 -7 0 -8 17 -2 38 4 10 11 -2 11 -18z m-2663 -78 c8 -5 9 -13 3
-22 -8 -13 -10 -13 -10 2 0 9 -6 19 -12 21 -7 3 -8 6 -3 6 6 0 15 -3 22 -7z
m2363 -1376 c0 -3 -4 -8 -10 -11 -5 -3 -10 -1 -10 4 0 6 5 11 10 11 6 0 10 -2
10 -4z m-170 -250 c0 -3 -4 -8 -10 -11 -5 -3 -10 -1 -10 4 0 6 5 11 10 11 6 0
10 -2 10 -4z m-403 -292 c-3 -3 -12 -4 -19 -1 -8 3 -5 6 6 6 11 1 17 -2 13 -5z
m48 -54 c-3 -5 -12 -10 -18 -10 -7 0 -6 4 3 10 19 12 23 12 15 0z m-195 -74
c0 -3 -4 -8 -10 -11 -5 -3 -10 -1 -10 4 0 6 5 11 10 11 6 0 10 -2 10 -4z
m-100 -56 c-16 -11 -40 -13 -40 -5 0 8 44 24 50 18 2 -2 -2 -8 -10 -13z m-750
-359 c0 -12 -20 -25 -27 -18 -7 7 6 27 18 27 5 0 9 -4 9 -9z"/>
<path d="M6480 10650 c8 -5 22 -9 30 -9 10 0 8 3 -5 9 -27 12 -43 12 -25 0z"/>
<path d="M6880 10390 c0 -5 5 -10 11 -10 5 0 7 5 4 10 -3 6 -8 10 -11 10 -2 0
-4 -4 -4 -10z"/>
<path d="M7035 10200 c3 -5 11 -10 16 -10 6 0 7 5 4 10 -3 6 -11 10 -16 10 -6
0 -7 -4 -4 -10z"/>
<path d="M7060 10145 c0 -8 4 -15 10 -15 5 0 7 7 4 15 -4 8 -8 15 -10 15 -2 0
-4 -7 -4 -15z"/>
<path d="M7120 10101 c0 -5 5 -13 10 -16 6 -3 10 -2 10 4 0 5 -4 13 -10 16 -5
3 -10 2 -10 -4z"/>
<path d="M7098 10065 c-8 -8 2 -45 13 -45 4 0 11 5 15 11 7 12 -19 43 -28 34z"/>
<path d="M7196 9994 c-8 -21 -8 -24 5 -24 5 0 8 4 5 9 -4 5 -1 11 6 13 8 3 9
6 1 11 -6 4 -14 0 -17 -9z"/>
<path d="M7187 9914 c5 -14 3 -15 -15 -5 -25 13 -40 -3 -22 -24 9 -11 16 -12
31 -2 20 12 27 47 9 47 -5 0 -7 -7 -3 -16z"/>
<path d="M7240 9889 c0 -11 4 -18 10 -14 5 3 7 12 3 20 -7 21 -13 19 -13 -6z"/>
<path d="M7380 9869 c0 -5 5 -7 10 -4 6 3 10 8 10 11 0 2 -4 4 -10 4 -5 0 -10
-5 -10 -11z"/>
<path d="M7450 9865 c0 -8 4 -15 10 -15 5 0 7 7 4 15 -4 8 -8 15 -10 15 -2 0
-4 -7 -4 -15z"/>
<path d="M7260 9796 c0 -2 8 -10 18 -17 15 -13 16 -12 3 4 -13 16 -21 21 -21
13z"/>
<path d="M7344 9766 c6 -35 12 -42 19 -22 3 8 -1 22 -9 33 -13 17 -14 16 -10
-11z"/>
<path d="M7100 4585 c-11 -13 -10 -14 4 -9 9 3 16 10 16 15 0 13 -6 11 -20 -6z"/>
<path d="M6890 4480 c-8 -5 -12 -12 -9 -15 4 -3 12 1 19 10 14 17 11 19 -10 5z"/>
</g>
</svg>
